%TF.GenerationSoftware,KiCad,Pcbnew,10.0.6*%
%TF.CreationDate,2026-10-05T13:28:26+03:00*%
%TF.ProjectId,433 transmitter,34333320-7472-4616-9e73-6d6974746572,rev?*%
%TF.SameCoordinates,Original*%
%TF.FileFunction,Soldermask,Top*%
%TF.FilePolarity,Negative*%
%FSLAX46Y46*%
G04 Gerber Fmt 4.6, Leading zero omitted, Abs format (unit mm)*
G04 Created by KiCad (PCBNEW 10.0.6) date 2026-10-05 13:28:26*
%MOMM*%
%LPD*%
G01*
G04 APERTURE LIST*
G04 Aperture macros list*
%AMRoundRect*
0 Rectangle with rounded corners*
0 $1 Rounding radius*
0 $2 $3 $4 $5 $6 $7 $8 $9 X,Y pos of 4 corners*
0 Add a 4 corners polygon primitive as box body*
4,1,4,$2,$3,$4,$5,$6,$7,$8,$9,$2,$3,0*
0 Add four circle primitives for the rounded corners*
1,1,$1+$1,$2,$3*
1,1,$1+$1,$4,$5*
1,1,$1+$1,$6,$7*
1,1,$1+$1,$8,$9*
0 Add four rect primitives between the rounded corners*
20,1,$1+$1,$2,$3,$4,$5,0*
20,1,$1+$1,$4,$5,$6,$7,0*
20,1,$1+$1,$6,$7,$8,$9,0*
20,1,$1+$1,$8,$9,$2,$3,0*%
G04 Aperture macros list end*
%ADD10RoundRect,0.237500X-0.237500X0.300000X-0.237500X-0.300000X0.237500X-0.300000X0.237500X0.300000X0*%
%ADD11RoundRect,0.650000X-0.650000X0.650000X-0.650000X-0.650000X0.650000X-0.650000X0.650000X0.650000X0*%
%ADD12C,2.600000*%
%ADD13RoundRect,0.250000X-0.350000X-0.450000X0.350000X-0.450000X0.350000X0.450000X-0.350000X0.450000X0*%
%ADD14RoundRect,0.250000X-0.475000X0.337500X-0.475000X-0.337500X0.475000X-0.337500X0.475000X0.337500X0*%
%ADD15RoundRect,0.090000X-0.210000X0.310000X-0.210000X-0.310000X0.210000X-0.310000X0.210000X0.310000X0*%
%ADD16C,2.000000*%
%ADD17O,3.500000X2.200000*%
%ADD18R,2.500000X1.500000*%
%ADD19O,2.500000X1.500000*%
%ADD20RoundRect,0.087500X-0.662500X-0.087500X0.662500X-0.087500X0.662500X0.087500X-0.662500X0.087500X0*%
%ADD21RoundRect,0.237500X0.237500X-0.300000X0.237500X0.300000X-0.237500X0.300000X-0.237500X-0.300000X0*%
%ADD22RoundRect,0.250000X0.475000X-0.337500X0.475000X0.337500X-0.475000X0.337500X-0.475000X-0.337500X0*%
%ADD23RoundRect,0.052500X-0.122500X-0.347500X0.122500X-0.347500X0.122500X0.347500X-0.122500X0.347500X0*%
%ADD24RoundRect,0.650000X0.650000X-0.650000X0.650000X0.650000X-0.650000X0.650000X-0.650000X-0.650000X0*%
%ADD25RoundRect,0.300000X0.950000X-0.700000X0.950000X0.700000X-0.950000X0.700000X-0.950000X-0.700000X0*%
%ADD26R,1.700000X1.700000*%
%ADD27C,1.700000*%
%ADD28RoundRect,0.150000X0.150000X-0.875000X0.150000X0.875000X-0.150000X0.875000X-0.150000X-0.875000X0*%
G04 APERTURE END LIST*
D10*
%TO.C,C5*%
X158500000Y-107097500D03*
X158500000Y-108822500D03*
%TD*%
D11*
%TO.C,BT1*%
X137500000Y-73460000D03*
D12*
X137500000Y-78540000D03*
%TD*%
D10*
%TO.C,C3*%
X143500000Y-107597500D03*
X143500000Y-109322500D03*
%TD*%
D13*
%TO.C,R1*%
X151500000Y-107460000D03*
X153500000Y-107460000D03*
%TD*%
D14*
%TO.C,C11*%
X140500000Y-73462500D03*
X140500000Y-75537500D03*
%TD*%
%TO.C,C8*%
X159000000Y-110922500D03*
X159000000Y-112997500D03*
%TD*%
D15*
%TO.C,L1*%
X157000000Y-107460000D03*
X157000000Y-108910000D03*
%TD*%
D16*
%TO.C,SW4*%
X148750000Y-94750000D03*
X155250000Y-94750000D03*
X148750000Y-99250000D03*
X155250000Y-99250000D03*
%TD*%
D17*
%TO.C,SW5*%
X137000000Y-103900000D03*
X137000000Y-112100000D03*
D18*
X137000000Y-106000000D03*
D19*
X137000000Y-108000000D03*
X137000000Y-110000000D03*
%TD*%
D20*
%TO.C,U2*%
X150735000Y-109270000D03*
X150735000Y-109770000D03*
X150735000Y-110270000D03*
X150735000Y-110770000D03*
X150735000Y-111270000D03*
X154935000Y-111270000D03*
X154935000Y-110770000D03*
X154935000Y-110270000D03*
X154935000Y-109770000D03*
X154935000Y-109270000D03*
%TD*%
D14*
%TO.C,C1*%
X143000000Y-69962500D03*
X143000000Y-72037500D03*
%TD*%
D21*
%TO.C,C4*%
X143500000Y-112822500D03*
X143500000Y-111097500D03*
%TD*%
D22*
%TO.C,C10*%
X140500000Y-71537500D03*
X140500000Y-69462500D03*
%TD*%
%TO.C,C2*%
X143000000Y-68037500D03*
X143000000Y-65962500D03*
%TD*%
D23*
%TO.C,L2*%
X158750000Y-105460000D03*
X160000000Y-105460000D03*
%TD*%
D24*
%TO.C,AE1*%
X161000000Y-102000000D03*
D12*
X161000000Y-96920000D03*
%TD*%
D16*
%TO.C,SW2*%
X148750000Y-85750000D03*
X155250000Y-85750000D03*
X148750000Y-90250000D03*
X155250000Y-90250000D03*
%TD*%
D25*
%TO.C,Y1*%
X146900000Y-112060000D03*
X146900000Y-107960000D03*
%TD*%
D14*
%TO.C,C9*%
X156990000Y-110922500D03*
X156990000Y-112997500D03*
%TD*%
D26*
%TO.C,J1*%
X138000000Y-66040000D03*
D27*
X138000000Y-63500000D03*
X138000000Y-60960000D03*
%TD*%
D28*
%TO.C,U1*%
X145285000Y-70650000D03*
X146555000Y-70650000D03*
X147825000Y-70650000D03*
X149095000Y-70650000D03*
X150365000Y-70650000D03*
X151635000Y-70650000D03*
X152905000Y-70650000D03*
X154175000Y-70650000D03*
X155445000Y-70650000D03*
X156715000Y-70650000D03*
X156715000Y-61350000D03*
X155445000Y-61350000D03*
X154175000Y-61350000D03*
X152905000Y-61350000D03*
X151635000Y-61350000D03*
X150365000Y-61350000D03*
X149095000Y-61350000D03*
X147825000Y-61350000D03*
X146555000Y-61350000D03*
X145285000Y-61350000D03*
%TD*%
D16*
%TO.C,SW6*%
X148750000Y-76750000D03*
X155250000Y-76750000D03*
X148750000Y-81250000D03*
X155250000Y-81250000D03*
%TD*%
D10*
%TO.C,C6*%
X160500000Y-107097500D03*
X160500000Y-108822500D03*
%TD*%
D14*
%TO.C,C7*%
X160990000Y-110922500D03*
X160990000Y-112997500D03*
%TD*%
D16*
%TO.C,SW1*%
X137000000Y-85750000D03*
X143500000Y-85750000D03*
X137000000Y-90250000D03*
X143500000Y-90250000D03*
%TD*%
%TO.C,SW3*%
X137000000Y-95000000D03*
X143500000Y-95000000D03*
X137000000Y-99500000D03*
X143500000Y-99500000D03*
%TD*%
M02*
