%TF.GenerationSoftware,KiCad,Pcbnew,10.0.6*%
%TF.CreationDate,2026-10-05T13:28:26+03:00*%
%TF.ProjectId,433 transmitter,34333320-7472-4616-9e73-6d6974746572,rev?*%
%TF.SameCoordinates,Original*%
%TF.FileFunction,Legend,Bot*%
%TF.FilePolarity,Positive*%
%FSLAX46Y46*%
G04 Gerber Fmt 4.6, Leading zero omitted, Abs format (unit mm)*
G04 Created by KiCad (PCBNEW 10.0.6) date 2026-10-05 13:28:26*
%MOMM*%
%LPD*%
G01*
G04 APERTURE LIST*
%ADD10C,0.125000*%
G04 APERTURE END LIST*
D10*
X142622525Y-65671119D02*
X142289192Y-66671119D01*
X142289192Y-66671119D02*
X141955859Y-65671119D01*
X141051097Y-66575880D02*
X141098716Y-66623500D01*
X141098716Y-66623500D02*
X141241573Y-66671119D01*
X141241573Y-66671119D02*
X141336811Y-66671119D01*
X141336811Y-66671119D02*
X141479668Y-66623500D01*
X141479668Y-66623500D02*
X141574906Y-66528261D01*
X141574906Y-66528261D02*
X141622525Y-66433023D01*
X141622525Y-66433023D02*
X141670144Y-66242547D01*
X141670144Y-66242547D02*
X141670144Y-66099690D01*
X141670144Y-66099690D02*
X141622525Y-65909214D01*
X141622525Y-65909214D02*
X141574906Y-65813976D01*
X141574906Y-65813976D02*
X141479668Y-65718738D01*
X141479668Y-65718738D02*
X141336811Y-65671119D01*
X141336811Y-65671119D02*
X141241573Y-65671119D01*
X141241573Y-65671119D02*
X141098716Y-65718738D01*
X141098716Y-65718738D02*
X141051097Y-65766357D01*
X140051097Y-66575880D02*
X140098716Y-66623500D01*
X140098716Y-66623500D02*
X140241573Y-66671119D01*
X140241573Y-66671119D02*
X140336811Y-66671119D01*
X140336811Y-66671119D02*
X140479668Y-66623500D01*
X140479668Y-66623500D02*
X140574906Y-66528261D01*
X140574906Y-66528261D02*
X140622525Y-66433023D01*
X140622525Y-66433023D02*
X140670144Y-66242547D01*
X140670144Y-66242547D02*
X140670144Y-66099690D01*
X140670144Y-66099690D02*
X140622525Y-65909214D01*
X140622525Y-65909214D02*
X140574906Y-65813976D01*
X140574906Y-65813976D02*
X140479668Y-65718738D01*
X140479668Y-65718738D02*
X140336811Y-65671119D01*
X140336811Y-65671119D02*
X140241573Y-65671119D01*
X140241573Y-65671119D02*
X140098716Y-65718738D01*
X140098716Y-65718738D02*
X140051097Y-65766357D01*
X142146335Y-60318738D02*
X142241573Y-60271119D01*
X142241573Y-60271119D02*
X142384430Y-60271119D01*
X142384430Y-60271119D02*
X142527287Y-60318738D01*
X142527287Y-60318738D02*
X142622525Y-60413976D01*
X142622525Y-60413976D02*
X142670144Y-60509214D01*
X142670144Y-60509214D02*
X142717763Y-60699690D01*
X142717763Y-60699690D02*
X142717763Y-60842547D01*
X142717763Y-60842547D02*
X142670144Y-61033023D01*
X142670144Y-61033023D02*
X142622525Y-61128261D01*
X142622525Y-61128261D02*
X142527287Y-61223500D01*
X142527287Y-61223500D02*
X142384430Y-61271119D01*
X142384430Y-61271119D02*
X142289192Y-61271119D01*
X142289192Y-61271119D02*
X142146335Y-61223500D01*
X142146335Y-61223500D02*
X142098716Y-61175880D01*
X142098716Y-61175880D02*
X142098716Y-60842547D01*
X142098716Y-60842547D02*
X142289192Y-60842547D01*
X141670144Y-61271119D02*
X141670144Y-60271119D01*
X141670144Y-60271119D02*
X141098716Y-61271119D01*
X141098716Y-61271119D02*
X141098716Y-60271119D01*
X140622525Y-61271119D02*
X140622525Y-60271119D01*
X140622525Y-60271119D02*
X140384430Y-60271119D01*
X140384430Y-60271119D02*
X140241573Y-60318738D01*
X140241573Y-60318738D02*
X140146335Y-60413976D01*
X140146335Y-60413976D02*
X140098716Y-60509214D01*
X140098716Y-60509214D02*
X140051097Y-60699690D01*
X140051097Y-60699690D02*
X140051097Y-60842547D01*
X140051097Y-60842547D02*
X140098716Y-61033023D01*
X140098716Y-61033023D02*
X140146335Y-61128261D01*
X140146335Y-61128261D02*
X140241573Y-61223500D01*
X140241573Y-61223500D02*
X140384430Y-61271119D01*
X140384430Y-61271119D02*
X140622525Y-61271119D01*
X143146334Y-63171119D02*
X143146334Y-63980642D01*
X143146334Y-63980642D02*
X143098715Y-64075880D01*
X143098715Y-64075880D02*
X143051096Y-64123500D01*
X143051096Y-64123500D02*
X142955858Y-64171119D01*
X142955858Y-64171119D02*
X142765382Y-64171119D01*
X142765382Y-64171119D02*
X142670144Y-64123500D01*
X142670144Y-64123500D02*
X142622525Y-64075880D01*
X142622525Y-64075880D02*
X142574906Y-63980642D01*
X142574906Y-63980642D02*
X142574906Y-63171119D01*
X142098715Y-64171119D02*
X142098715Y-63171119D01*
X142098715Y-63171119D02*
X141717763Y-63171119D01*
X141717763Y-63171119D02*
X141622525Y-63218738D01*
X141622525Y-63218738D02*
X141574906Y-63266357D01*
X141574906Y-63266357D02*
X141527287Y-63361595D01*
X141527287Y-63361595D02*
X141527287Y-63504452D01*
X141527287Y-63504452D02*
X141574906Y-63599690D01*
X141574906Y-63599690D02*
X141622525Y-63647309D01*
X141622525Y-63647309D02*
X141717763Y-63694928D01*
X141717763Y-63694928D02*
X142098715Y-63694928D01*
X141098715Y-64171119D02*
X141098715Y-63171119D01*
X141098715Y-63171119D02*
X140860620Y-63171119D01*
X140860620Y-63171119D02*
X140717763Y-63218738D01*
X140717763Y-63218738D02*
X140622525Y-63313976D01*
X140622525Y-63313976D02*
X140574906Y-63409214D01*
X140574906Y-63409214D02*
X140527287Y-63599690D01*
X140527287Y-63599690D02*
X140527287Y-63742547D01*
X140527287Y-63742547D02*
X140574906Y-63933023D01*
X140574906Y-63933023D02*
X140622525Y-64028261D01*
X140622525Y-64028261D02*
X140717763Y-64123500D01*
X140717763Y-64123500D02*
X140860620Y-64171119D01*
X140860620Y-64171119D02*
X141098715Y-64171119D01*
X140098715Y-64171119D02*
X140098715Y-63171119D01*
M02*
