%TF.GenerationSoftware,KiCad,Pcbnew,10.0.6*%
%TF.CreationDate,2026-10-05T13:28:26+03:00*%
%TF.ProjectId,433 transmitter,34333320-7472-4616-9e73-6d6974746572,rev?*%
%TF.SameCoordinates,Original*%
%TF.FileFunction,Legend,Top*%
%TF.FilePolarity,Positive*%
%FSLAX46Y46*%
G04 Gerber Fmt 4.6, Leading zero omitted, Abs format (unit mm)*
G04 Created by KiCad (PCBNEW 10.0.6) date 2026-10-05 13:28:26*
%MOMM*%
%LPD*%
G01*
G04 APERTURE LIST*
%ADD10C,0.125000*%
%ADD11C,0.200000*%
%ADD12C,0.400000*%
%ADD13C,0.100000*%
%ADD14C,0.120000*%
G04 APERTURE END LIST*
D10*
X153672712Y-102185404D02*
X154148902Y-102185404D01*
X153577474Y-102471119D02*
X153910807Y-101471119D01*
X153910807Y-101471119D02*
X154244140Y-102471119D01*
X154577474Y-101804452D02*
X154577474Y-102471119D01*
X154577474Y-101899690D02*
X154625093Y-101852071D01*
X154625093Y-101852071D02*
X154720331Y-101804452D01*
X154720331Y-101804452D02*
X154863188Y-101804452D01*
X154863188Y-101804452D02*
X154958426Y-101852071D01*
X154958426Y-101852071D02*
X155006045Y-101947309D01*
X155006045Y-101947309D02*
X155006045Y-102471119D01*
X155339379Y-101804452D02*
X155720331Y-101804452D01*
X155482236Y-101471119D02*
X155482236Y-102328261D01*
X155482236Y-102328261D02*
X155529855Y-102423500D01*
X155529855Y-102423500D02*
X155625093Y-102471119D01*
X155625093Y-102471119D02*
X155720331Y-102471119D01*
X156434617Y-102423500D02*
X156339379Y-102471119D01*
X156339379Y-102471119D02*
X156148903Y-102471119D01*
X156148903Y-102471119D02*
X156053665Y-102423500D01*
X156053665Y-102423500D02*
X156006046Y-102328261D01*
X156006046Y-102328261D02*
X156006046Y-101947309D01*
X156006046Y-101947309D02*
X156053665Y-101852071D01*
X156053665Y-101852071D02*
X156148903Y-101804452D01*
X156148903Y-101804452D02*
X156339379Y-101804452D01*
X156339379Y-101804452D02*
X156434617Y-101852071D01*
X156434617Y-101852071D02*
X156482236Y-101947309D01*
X156482236Y-101947309D02*
X156482236Y-102042547D01*
X156482236Y-102042547D02*
X156006046Y-102137785D01*
X156910808Y-101804452D02*
X156910808Y-102471119D01*
X156910808Y-101899690D02*
X156958427Y-101852071D01*
X156958427Y-101852071D02*
X157053665Y-101804452D01*
X157053665Y-101804452D02*
X157196522Y-101804452D01*
X157196522Y-101804452D02*
X157291760Y-101852071D01*
X157291760Y-101852071D02*
X157339379Y-101947309D01*
X157339379Y-101947309D02*
X157339379Y-102471119D01*
X157815570Y-101804452D02*
X157815570Y-102471119D01*
X157815570Y-101899690D02*
X157863189Y-101852071D01*
X157863189Y-101852071D02*
X157958427Y-101804452D01*
X157958427Y-101804452D02*
X158101284Y-101804452D01*
X158101284Y-101804452D02*
X158196522Y-101852071D01*
X158196522Y-101852071D02*
X158244141Y-101947309D01*
X158244141Y-101947309D02*
X158244141Y-102471119D01*
X159148903Y-102471119D02*
X159148903Y-101947309D01*
X159148903Y-101947309D02*
X159101284Y-101852071D01*
X159101284Y-101852071D02*
X159006046Y-101804452D01*
X159006046Y-101804452D02*
X158815570Y-101804452D01*
X158815570Y-101804452D02*
X158720332Y-101852071D01*
X159148903Y-102423500D02*
X159053665Y-102471119D01*
X159053665Y-102471119D02*
X158815570Y-102471119D01*
X158815570Y-102471119D02*
X158720332Y-102423500D01*
X158720332Y-102423500D02*
X158672713Y-102328261D01*
X158672713Y-102328261D02*
X158672713Y-102233023D01*
X158672713Y-102233023D02*
X158720332Y-102137785D01*
X158720332Y-102137785D02*
X158815570Y-102090166D01*
X158815570Y-102090166D02*
X159053665Y-102090166D01*
X159053665Y-102090166D02*
X159148903Y-102042547D01*
D11*
X134488720Y-73534600D02*
X135631578Y-73534600D01*
X135060149Y-74106028D02*
X135060149Y-72963171D01*
X135234600Y-79571279D02*
X135234600Y-78428422D01*
D12*
X135186966Y-89134438D02*
X134044109Y-89134438D01*
X134615537Y-89134438D02*
X134615537Y-87134438D01*
X134615537Y-87134438D02*
X134425061Y-87420152D01*
X134425061Y-87420152D02*
X134234585Y-87610628D01*
X134234585Y-87610628D02*
X134044109Y-87705866D01*
X133948871Y-96434438D02*
X135186966Y-96434438D01*
X135186966Y-96434438D02*
X134520299Y-97196342D01*
X134520299Y-97196342D02*
X134806014Y-97196342D01*
X134806014Y-97196342D02*
X134996490Y-97291580D01*
X134996490Y-97291580D02*
X135091728Y-97386819D01*
X135091728Y-97386819D02*
X135186966Y-97577295D01*
X135186966Y-97577295D02*
X135186966Y-98053485D01*
X135186966Y-98053485D02*
X135091728Y-98243961D01*
X135091728Y-98243961D02*
X134996490Y-98339200D01*
X134996490Y-98339200D02*
X134806014Y-98434438D01*
X134806014Y-98434438D02*
X134234585Y-98434438D01*
X134234585Y-98434438D02*
X134044109Y-98339200D01*
X134044109Y-98339200D02*
X133948871Y-98243961D01*
X157720299Y-78134438D02*
X157910776Y-78134438D01*
X157910776Y-78134438D02*
X158101252Y-78229676D01*
X158101252Y-78229676D02*
X158196490Y-78324914D01*
X158196490Y-78324914D02*
X158291728Y-78515390D01*
X158291728Y-78515390D02*
X158386966Y-78896342D01*
X158386966Y-78896342D02*
X158386966Y-79372533D01*
X158386966Y-79372533D02*
X158291728Y-79753485D01*
X158291728Y-79753485D02*
X158196490Y-79943961D01*
X158196490Y-79943961D02*
X158101252Y-80039200D01*
X158101252Y-80039200D02*
X157910776Y-80134438D01*
X157910776Y-80134438D02*
X157720299Y-80134438D01*
X157720299Y-80134438D02*
X157529823Y-80039200D01*
X157529823Y-80039200D02*
X157434585Y-79943961D01*
X157434585Y-79943961D02*
X157339347Y-79753485D01*
X157339347Y-79753485D02*
X157244109Y-79372533D01*
X157244109Y-79372533D02*
X157244109Y-78896342D01*
X157244109Y-78896342D02*
X157339347Y-78515390D01*
X157339347Y-78515390D02*
X157434585Y-78324914D01*
X157434585Y-78324914D02*
X157529823Y-78229676D01*
X157529823Y-78229676D02*
X157720299Y-78134438D01*
X157244109Y-87324914D02*
X157339347Y-87229676D01*
X157339347Y-87229676D02*
X157529823Y-87134438D01*
X157529823Y-87134438D02*
X158006014Y-87134438D01*
X158006014Y-87134438D02*
X158196490Y-87229676D01*
X158196490Y-87229676D02*
X158291728Y-87324914D01*
X158291728Y-87324914D02*
X158386966Y-87515390D01*
X158386966Y-87515390D02*
X158386966Y-87705866D01*
X158386966Y-87705866D02*
X158291728Y-87991580D01*
X158291728Y-87991580D02*
X157148871Y-89134438D01*
X157148871Y-89134438D02*
X158386966Y-89134438D01*
X158196490Y-97101104D02*
X158196490Y-98434438D01*
X157720299Y-96339200D02*
X157244109Y-97767771D01*
X157244109Y-97767771D02*
X158482204Y-97767771D01*
D13*
X156681366Y-106183333D02*
X156681366Y-105849999D01*
X156681366Y-105849999D02*
X157381366Y-105849999D01*
X156681366Y-106783333D02*
X156681366Y-106383333D01*
X156681366Y-106583333D02*
X157381366Y-106583333D01*
X157381366Y-106583333D02*
X157281366Y-106516666D01*
X157281366Y-106516666D02*
X157214700Y-106450000D01*
X157214700Y-106450000D02*
X157181366Y-106383333D01*
X160883333Y-105818633D02*
X160549999Y-105818633D01*
X160549999Y-105818633D02*
X160549999Y-105118633D01*
X161083333Y-105185300D02*
X161116666Y-105151966D01*
X161116666Y-105151966D02*
X161183333Y-105118633D01*
X161183333Y-105118633D02*
X161350000Y-105118633D01*
X161350000Y-105118633D02*
X161416666Y-105151966D01*
X161416666Y-105151966D02*
X161450000Y-105185300D01*
X161450000Y-105185300D02*
X161483333Y-105251966D01*
X161483333Y-105251966D02*
X161483333Y-105318633D01*
X161483333Y-105318633D02*
X161450000Y-105418633D01*
X161450000Y-105418633D02*
X161050000Y-105818633D01*
X161050000Y-105818633D02*
X161483333Y-105818633D01*
X146981228Y-110536190D02*
X147457419Y-110536190D01*
X146457419Y-110869523D02*
X146981228Y-110536190D01*
X146981228Y-110536190D02*
X146457419Y-110202857D01*
X147457419Y-109345714D02*
X147457419Y-109917142D01*
X147457419Y-109631428D02*
X146457419Y-109631428D01*
X146457419Y-109631428D02*
X146600276Y-109726666D01*
X146600276Y-109726666D02*
X146695514Y-109821904D01*
X146695514Y-109821904D02*
X146743133Y-109917142D01*
%TO.C,C5*%
D14*
X157990000Y-107813733D02*
X157990000Y-108106267D01*
X159010000Y-107813733D02*
X159010000Y-108106267D01*
%TO.C,BT1*%
X136000000Y-80060000D02*
X136000000Y-71960000D01*
X136000000Y-80060000D02*
X139000000Y-80060000D01*
X139000000Y-71960000D02*
X136000000Y-71960000D01*
X139000000Y-71960000D02*
X139000000Y-80060000D01*
%TO.C,C3*%
X142990000Y-108313733D02*
X142990000Y-108606267D01*
X144010000Y-108313733D02*
X144010000Y-108606267D01*
%TO.C,R1*%
X152272936Y-106725000D02*
X152727064Y-106725000D01*
X152272936Y-108195000D02*
X152727064Y-108195000D01*
%TO.C,C11*%
X139765000Y-74238748D02*
X139765000Y-74761252D01*
X141235000Y-74238748D02*
X141235000Y-74761252D01*
%TO.C,C8*%
X158265000Y-111698748D02*
X158265000Y-112221252D01*
X159735000Y-111698748D02*
X159735000Y-112221252D01*
%TO.C,SW4*%
X148500000Y-96250000D02*
X148500000Y-97750000D01*
X149750000Y-100250000D02*
X154250000Y-100250000D01*
X154250000Y-93750000D02*
X149750000Y-93750000D01*
X155500000Y-97750000D02*
X155500000Y-96250000D01*
%TO.C,SW5*%
X134700000Y-103700000D02*
X134700000Y-105900000D01*
X134700000Y-110000000D02*
X134700000Y-112300000D01*
X139300000Y-103700000D02*
X139300000Y-112300000D01*
%TO.C,U2*%
X151225000Y-108660000D02*
X154445000Y-108660000D01*
X151225000Y-108835000D02*
X151225000Y-108660000D01*
X151225000Y-111880000D02*
X151225000Y-111705000D01*
X154445000Y-108660000D02*
X154445000Y-108835000D01*
X154445000Y-111705000D02*
X154445000Y-111880000D01*
X154445000Y-111880000D02*
X151225000Y-111880000D01*
X150675000Y-108830000D02*
X150435000Y-108500000D01*
X150915000Y-108500000D01*
X150675000Y-108830000D01*
G36*
X150675000Y-108830000D02*
G01*
X150435000Y-108500000D01*
X150915000Y-108500000D01*
X150675000Y-108830000D01*
G37*
%TO.C,C1*%
X142265000Y-70738748D02*
X142265000Y-71261252D01*
X143735000Y-70738748D02*
X143735000Y-71261252D01*
%TO.C,C4*%
X142990000Y-112106267D02*
X142990000Y-111813733D01*
X144010000Y-112106267D02*
X144010000Y-111813733D01*
%TO.C,C10*%
X139765000Y-70761252D02*
X139765000Y-70238748D01*
X141235000Y-70761252D02*
X141235000Y-70238748D01*
%TO.C,C2*%
X142265000Y-67261252D02*
X142265000Y-66738748D01*
X143735000Y-67261252D02*
X143735000Y-66738748D01*
%TO.C,AE1*%
X159500000Y-103500000D02*
X159500000Y-95400000D01*
X159500000Y-103500000D02*
X162500000Y-103500000D01*
X162500000Y-95400000D02*
X159500000Y-95400000D01*
X162500000Y-95400000D02*
X162500000Y-103500000D01*
%TO.C,SW2*%
X148500000Y-87250000D02*
X148500000Y-88750000D01*
X149750000Y-91250000D02*
X154250000Y-91250000D01*
X154250000Y-84750000D02*
X149750000Y-84750000D01*
X155500000Y-88750000D02*
X155500000Y-87250000D01*
%TO.C,Y1*%
D13*
X145000000Y-106685000D02*
X149000000Y-106685000D01*
X149000000Y-113435000D01*
X145000000Y-113435000D01*
X145000000Y-106685000D01*
%TO.C,C9*%
D14*
X156255000Y-111698748D02*
X156255000Y-112221252D01*
X157725000Y-111698748D02*
X157725000Y-112221252D01*
%TO.C,J1*%
X136620000Y-64770000D02*
X136620000Y-59580000D01*
X139380000Y-59580000D02*
X136620000Y-59580000D01*
X139380000Y-64770000D02*
X136620000Y-64770000D01*
X139380000Y-64770000D02*
X139380000Y-59580000D01*
X139380000Y-66040000D02*
X139380000Y-67420000D01*
X139380000Y-67420000D02*
X138000000Y-67420000D01*
%TO.C,U1*%
X144490000Y-62140000D02*
X144725000Y-62140000D01*
X144490000Y-69860000D02*
X144490000Y-62140000D01*
X144725000Y-69860000D02*
X144490000Y-69860000D01*
X157275000Y-62140000D02*
X157510000Y-62140000D01*
X157510000Y-62140000D02*
X157510000Y-69860000D01*
X157510000Y-69860000D02*
X157275000Y-69860000D01*
X144720000Y-70650000D02*
X144250000Y-70990000D01*
X144250000Y-70310000D01*
X144720000Y-70650000D01*
G36*
X144720000Y-70650000D02*
G01*
X144250000Y-70990000D01*
X144250000Y-70310000D01*
X144720000Y-70650000D01*
G37*
%TO.C,SW6*%
X148500000Y-78250000D02*
X148500000Y-79750000D01*
X149750000Y-82250000D02*
X154250000Y-82250000D01*
X154250000Y-75750000D02*
X149750000Y-75750000D01*
X155500000Y-79750000D02*
X155500000Y-78250000D01*
%TO.C,C6*%
X159990000Y-107813733D02*
X159990000Y-108106267D01*
X161010000Y-107813733D02*
X161010000Y-108106267D01*
%TO.C,C7*%
X160255000Y-111698748D02*
X160255000Y-112221252D01*
X161725000Y-111698748D02*
X161725000Y-112221252D01*
%TO.C,SW1*%
X136750000Y-87250000D02*
X136750000Y-88750000D01*
X138000000Y-91250000D02*
X142500000Y-91250000D01*
X142500000Y-84750000D02*
X138000000Y-84750000D01*
X143750000Y-88750000D02*
X143750000Y-87250000D01*
%TO.C,SW3*%
X136750000Y-96500000D02*
X136750000Y-98000000D01*
X138000000Y-100500000D02*
X142500000Y-100500000D01*
X142500000Y-94000000D02*
X138000000Y-94000000D01*
X143750000Y-98000000D02*
X143750000Y-96500000D01*
%TD*%
M02*
