%TF.GenerationSoftware,KiCad,Pcbnew,10.0.6*%
%TF.CreationDate,2026-10-05T13:28:26+03:00*%
%TF.ProjectId,433 transmitter,34333320-7472-4616-9e73-6d6974746572,rev?*%
%TF.SameCoordinates,Original*%
%TF.FileFunction,Copper,L2,Bot*%
%TF.FilePolarity,Positive*%
%FSLAX46Y46*%
G04 Gerber Fmt 4.6, Leading zero omitted, Abs format (unit mm)*
G04 Created by KiCad (PCBNEW 10.0.6) date 2026-10-05 13:28:26*
%MOMM*%
%LPD*%
G01*
G04 APERTURE LIST*
G04 Aperture macros list*
%AMRoundRect*
0 Rectangle with rounded corners*
0 $1 Rounding radius*
0 $2 $3 $4 $5 $6 $7 $8 $9 X,Y pos of 4 corners*
0 Add a 4 corners polygon primitive as box body*
4,1,4,$2,$3,$4,$5,$6,$7,$8,$9,$2,$3,0*
0 Add four circle primitives for the rounded corners*
1,1,$1+$1,$2,$3*
1,1,$1+$1,$4,$5*
1,1,$1+$1,$6,$7*
1,1,$1+$1,$8,$9*
0 Add four rect primitives between the rounded corners*
20,1,$1+$1,$2,$3,$4,$5,0*
20,1,$1+$1,$4,$5,$6,$7,0*
20,1,$1+$1,$6,$7,$8,$9,0*
20,1,$1+$1,$8,$9,$2,$3,0*%
G04 Aperture macros list end*
%TA.AperFunction,ComponentPad*%
%ADD10RoundRect,0.650000X-0.650000X0.650000X-0.650000X-0.650000X0.650000X-0.650000X0.650000X0.650000X0*%
%TD*%
%TA.AperFunction,ComponentPad*%
%ADD11C,2.600000*%
%TD*%
%TA.AperFunction,ComponentPad*%
%ADD12C,2.000000*%
%TD*%
%TA.AperFunction,ComponentPad*%
%ADD13O,3.500000X2.200000*%
%TD*%
%TA.AperFunction,ComponentPad*%
%ADD14R,2.500000X1.500000*%
%TD*%
%TA.AperFunction,ComponentPad*%
%ADD15O,2.500000X1.500000*%
%TD*%
%TA.AperFunction,ComponentPad*%
%ADD16RoundRect,0.650000X0.650000X-0.650000X0.650000X0.650000X-0.650000X0.650000X-0.650000X-0.650000X0*%
%TD*%
%TA.AperFunction,ComponentPad*%
%ADD17R,1.700000X1.700000*%
%TD*%
%TA.AperFunction,ComponentPad*%
%ADD18C,1.700000*%
%TD*%
%TA.AperFunction,ViaPad*%
%ADD19C,0.600000*%
%TD*%
%TA.AperFunction,Conductor*%
%ADD20C,0.200000*%
%TD*%
G04 APERTURE END LIST*
D10*
%TO.P,BT1,1,+_1*%
%TO.N,VCC*%
X137500000Y-73460000D03*
D11*
%TO.P,BT1,2,-_2*%
%TO.N,Net-(BT1--)*%
X137500000Y-78540000D03*
%TD*%
D12*
%TO.P,SW4,1,1_1*%
%TO.N,Net-(U1-PA5)*%
X148750000Y-94750000D03*
X155250000Y-94750000D03*
%TO.P,SW4,2,2_2*%
%TO.N,GND*%
X148750000Y-99250000D03*
X155250000Y-99250000D03*
%TD*%
D13*
%TO.P,SW5,*%
%TO.N,*%
X137000000Y-103900000D03*
X137000000Y-112100000D03*
D14*
%TO.P,SW5,1,A_1*%
%TO.N,GND*%
X137000000Y-106000000D03*
D15*
%TO.P,SW5,2,B_2*%
%TO.N,Net-(BT1--)*%
X137000000Y-108000000D03*
%TO.P,SW5,3*%
%TO.N,N/C*%
X137000000Y-110000000D03*
%TD*%
D16*
%TO.P,AE1,1*%
%TO.N,Net-(AE1-Pad1)*%
X161000000Y-102000000D03*
D11*
%TO.P,AE1,2*%
%TO.N,GND*%
X161000000Y-96920000D03*
%TD*%
D12*
%TO.P,SW2,1,1_1*%
%TO.N,Net-(U1-PA3)*%
X148750000Y-85750000D03*
X155250000Y-85750000D03*
%TO.P,SW2,2,2_2*%
%TO.N,GND*%
X148750000Y-90250000D03*
X155250000Y-90250000D03*
%TD*%
D17*
%TO.P,J1,1,Pin_1_1*%
%TO.N,VCC*%
X138000000Y-66040000D03*
D18*
%TO.P,J1,2,Pin_2_2*%
%TO.N,Net-(J1-Pin_2)*%
X138000000Y-63500000D03*
%TO.P,J1,3,Pin_3_3*%
%TO.N,GND*%
X138000000Y-60960000D03*
%TD*%
D12*
%TO.P,SW6,1,1_1*%
%TO.N,Net-(U1-PA7)*%
X148750000Y-76750000D03*
X155250000Y-76750000D03*
%TO.P,SW6,2,2_2*%
%TO.N,GND*%
X148750000Y-81250000D03*
X155250000Y-81250000D03*
%TD*%
%TO.P,SW1,1,1_1*%
%TO.N,Net-(U1-PA2)*%
X137000000Y-85750000D03*
X143500000Y-85750000D03*
%TO.P,SW1,2,2_2*%
%TO.N,GND*%
X137000000Y-90250000D03*
X143500000Y-90250000D03*
%TD*%
%TO.P,SW3,1,1_1*%
%TO.N,Net-(U1-PA4)*%
X137000000Y-95000000D03*
X143500000Y-95000000D03*
%TO.P,SW3,2,2_2*%
%TO.N,GND*%
X137000000Y-99500000D03*
X143500000Y-99500000D03*
%TD*%
D19*
%TO.N,GND*%
X157000000Y-109800000D03*
X160000000Y-71711498D03*
X137001538Y-69726853D03*
X133800000Y-87650501D03*
X145300000Y-103300000D03*
X133800000Y-63938879D03*
X160000000Y-78533721D03*
X160000000Y-85355943D03*
X133800000Y-70713628D03*
X148700000Y-83100000D03*
X140500000Y-76700000D03*
X145300000Y-68100000D03*
X161200000Y-109800000D03*
X158900000Y-97000000D03*
X160000000Y-61478165D03*
X155300000Y-83100000D03*
X148095599Y-65681134D03*
X133800000Y-97812625D03*
X146200000Y-65500000D03*
X152000000Y-109500000D03*
X155859132Y-73194303D03*
X153581072Y-109523173D03*
X142500000Y-111000000D03*
X140735715Y-66179385D03*
X141800000Y-75600000D03*
X149855997Y-68579567D03*
X153500000Y-111000000D03*
X133800000Y-67326254D03*
X160000000Y-92178165D03*
X161500000Y-108900000D03*
X148800000Y-92200000D03*
X142900000Y-73300000D03*
X160000000Y-68300387D03*
X160000000Y-64889276D03*
X138415190Y-82049637D03*
X147793309Y-67761605D03*
X133800000Y-74101003D03*
X139000000Y-106000000D03*
X133800000Y-77488378D03*
X152500000Y-63900000D03*
X143829747Y-76421699D03*
X148310760Y-103601173D03*
X133800000Y-91037876D03*
X149991139Y-106961932D03*
X133800000Y-94425251D03*
X154152079Y-113203343D03*
X133800000Y-84263127D03*
X154285443Y-103681191D03*
X141055787Y-112989961D03*
X140100000Y-60400000D03*
X149393670Y-63654010D03*
X136900000Y-101400000D03*
X145300000Y-62900000D03*
X154100000Y-68300000D03*
X155400000Y-63700000D03*
X152000000Y-111000000D03*
X142500000Y-109500000D03*
X159200000Y-109800000D03*
X161100000Y-94800000D03*
X144896655Y-80982729D03*
X157000000Y-103300000D03*
X146817089Y-105574952D03*
X135800000Y-61000000D03*
X141855968Y-82396382D03*
X160000000Y-88767054D03*
X152292103Y-65858952D03*
X142309404Y-79355695D03*
X154700000Y-107500000D03*
X133934178Y-110456055D03*
X157000000Y-99300000D03*
X155300000Y-92100000D03*
X153500000Y-106000000D03*
X141900000Y-106200000D03*
X160000000Y-75122609D03*
X133800000Y-80875752D03*
X136900000Y-92100000D03*
X141829295Y-62418535D03*
X133800000Y-101200000D03*
X143700000Y-92100000D03*
X145300000Y-99600000D03*
X147000000Y-99200000D03*
X160000000Y-81944832D03*
X141722604Y-103387792D03*
X155700000Y-65700000D03*
X150631284Y-74207865D03*
%TO.N,VCC*%
X150400000Y-104600000D03*
X152700000Y-104600000D03*
%TD*%
%TO.N,VCC*%
D20*
X152700000Y-104600000D02*
X150400000Y-104600000D01*
%TO.N,Net-(U1-PA2)*%
X137000000Y-85750000D02*
X143500000Y-85750000D01*
%TO.N,Net-(U1-PA3)*%
X148750000Y-85750000D02*
X155250000Y-85750000D01*
%TO.N,Net-(U1-PA4)*%
X137000000Y-95000000D02*
X143500000Y-95000000D01*
%TO.N,Net-(U1-PA5)*%
X148750000Y-94750000D02*
X155250000Y-94750000D01*
%TO.N,Net-(U1-PA7)*%
X148750000Y-76750000D02*
X155250000Y-76750000D01*
%TD*%
%TA.AperFunction,Conductor*%
%TO.N,GND*%
G36*
X161004418Y-59000816D02*
G01*
X161204561Y-59015130D01*
X161222063Y-59017647D01*
X161413795Y-59059355D01*
X161430760Y-59064336D01*
X161614611Y-59132909D01*
X161630694Y-59140253D01*
X161747495Y-59204032D01*
X161802908Y-59234290D01*
X161817791Y-59243855D01*
X161974864Y-59361438D01*
X161988235Y-59373024D01*
X162126975Y-59511764D01*
X162138561Y-59525135D01*
X162256144Y-59682208D01*
X162265709Y-59697091D01*
X162359743Y-59869300D01*
X162367093Y-59885394D01*
X162435661Y-60069234D01*
X162440645Y-60086209D01*
X162482351Y-60277931D01*
X162484869Y-60295442D01*
X162499184Y-60495580D01*
X162499500Y-60504427D01*
X162499500Y-95965234D01*
X162479815Y-96032273D01*
X162427011Y-96078028D01*
X162357853Y-96087972D01*
X162294297Y-96058947D01*
X162275182Y-96038120D01*
X162184065Y-95912710D01*
X162184065Y-95912709D01*
X161539429Y-96557344D01*
X161504888Y-96505649D01*
X161414351Y-96415112D01*
X161362653Y-96380569D01*
X162007289Y-95735933D01*
X161812377Y-95594321D01*
X161594998Y-95483560D01*
X161362959Y-95408165D01*
X161121993Y-95370000D01*
X160878007Y-95370000D01*
X160637040Y-95408165D01*
X160405001Y-95483560D01*
X160187619Y-95594323D01*
X159992710Y-95735931D01*
X159992709Y-95735933D01*
X160637346Y-96380569D01*
X160585649Y-96415112D01*
X160495112Y-96505649D01*
X160460569Y-96557345D01*
X159815933Y-95912709D01*
X159815931Y-95912710D01*
X159674323Y-96107619D01*
X159563560Y-96325001D01*
X159488165Y-96557040D01*
X159450000Y-96798006D01*
X159450000Y-97041993D01*
X159488165Y-97282959D01*
X159563560Y-97514998D01*
X159674321Y-97732377D01*
X159815933Y-97927288D01*
X159815933Y-97927289D01*
X160460569Y-97282653D01*
X160495112Y-97334351D01*
X160585649Y-97424888D01*
X160637345Y-97459429D01*
X159992709Y-98104065D01*
X160187622Y-98245678D01*
X160405001Y-98356439D01*
X160637040Y-98431834D01*
X160878007Y-98470000D01*
X161121993Y-98470000D01*
X161362959Y-98431834D01*
X161594998Y-98356439D01*
X161812377Y-98245678D01*
X162007288Y-98104065D01*
X162007289Y-98104065D01*
X161362654Y-97459429D01*
X161414351Y-97424888D01*
X161504888Y-97334351D01*
X161539430Y-97282654D01*
X162184065Y-97927289D01*
X162184065Y-97927288D01*
X162275182Y-97801879D01*
X162330512Y-97759214D01*
X162400126Y-97753235D01*
X162461921Y-97785841D01*
X162496278Y-97846680D01*
X162499500Y-97874765D01*
X162499500Y-100697120D01*
X162479815Y-100764159D01*
X162427011Y-100809914D01*
X162357853Y-100819858D01*
X162294297Y-100790833D01*
X162278854Y-100774809D01*
X162254940Y-100745060D01*
X162222795Y-100719221D01*
X162110753Y-100629158D01*
X162110751Y-100629157D01*
X162110750Y-100629156D01*
X161945023Y-100546964D01*
X161945021Y-100546963D01*
X161765497Y-100502317D01*
X161765501Y-100502317D01*
X161731327Y-100500000D01*
X161723954Y-100499500D01*
X160276046Y-100499500D01*
X160268673Y-100500000D01*
X160234500Y-100502317D01*
X160054978Y-100546963D01*
X160054976Y-100546964D01*
X159889249Y-100629156D01*
X159745059Y-100745059D01*
X159629156Y-100889249D01*
X159546964Y-101054976D01*
X159546963Y-101054978D01*
X159502317Y-101234500D01*
X159499500Y-101276048D01*
X159499500Y-102723951D01*
X159502317Y-102765499D01*
X159546963Y-102945021D01*
X159546964Y-102945023D01*
X159629156Y-103110750D01*
X159745059Y-103254940D01*
X159777121Y-103280712D01*
X159889247Y-103370842D01*
X160054979Y-103453037D01*
X160234501Y-103497682D01*
X160234502Y-103497682D01*
X160234505Y-103497683D01*
X160276046Y-103500500D01*
X160276048Y-103500500D01*
X161723952Y-103500500D01*
X161723954Y-103500500D01*
X161765495Y-103497683D01*
X161945021Y-103453037D01*
X162110753Y-103370842D01*
X162254940Y-103254940D01*
X162254942Y-103254938D01*
X162278853Y-103225192D01*
X162336196Y-103185273D01*
X162406018Y-103182693D01*
X162466151Y-103218272D01*
X162497503Y-103280712D01*
X162499500Y-103302879D01*
X162499500Y-112455572D01*
X162499184Y-112464419D01*
X162484869Y-112664557D01*
X162482351Y-112682068D01*
X162440645Y-112873790D01*
X162435661Y-112890765D01*
X162367093Y-113074605D01*
X162359743Y-113090699D01*
X162265709Y-113262908D01*
X162256144Y-113277791D01*
X162138561Y-113434864D01*
X162126975Y-113448235D01*
X161988235Y-113586975D01*
X161974864Y-113598561D01*
X161817791Y-113716144D01*
X161802908Y-113725709D01*
X161630699Y-113819743D01*
X161614605Y-113827093D01*
X161430765Y-113895661D01*
X161413790Y-113900645D01*
X161222068Y-113942351D01*
X161204557Y-113944869D01*
X161023779Y-113957799D01*
X161004417Y-113959184D01*
X160995572Y-113959500D01*
X135004428Y-113959500D01*
X134995582Y-113959184D01*
X134973622Y-113957613D01*
X134795442Y-113944869D01*
X134777931Y-113942351D01*
X134586209Y-113900645D01*
X134569234Y-113895661D01*
X134385394Y-113827093D01*
X134369300Y-113819743D01*
X134197091Y-113725709D01*
X134182208Y-113716144D01*
X134025135Y-113598561D01*
X134011764Y-113586975D01*
X133873024Y-113448235D01*
X133861438Y-113434864D01*
X133743855Y-113277791D01*
X133734290Y-113262908D01*
X133640256Y-113090699D01*
X133632909Y-113074611D01*
X133564336Y-112890760D01*
X133559354Y-112873790D01*
X133539302Y-112781613D01*
X133517647Y-112682063D01*
X133515130Y-112664556D01*
X133510457Y-112599223D01*
X133500816Y-112464418D01*
X133500500Y-112455572D01*
X133500500Y-103797648D01*
X135049500Y-103797648D01*
X135049500Y-104002351D01*
X135081522Y-104204534D01*
X135144781Y-104399223D01*
X135208691Y-104524653D01*
X135213509Y-104534108D01*
X135237715Y-104581613D01*
X135358028Y-104747213D01*
X135502779Y-104891964D01*
X135502785Y-104891969D01*
X135531390Y-104912752D01*
X135574056Y-104968082D01*
X135580035Y-105037695D01*
X135561608Y-105081960D01*
X135514504Y-105152456D01*
X135514503Y-105152459D01*
X135500000Y-105225371D01*
X135500000Y-105875000D01*
X136567619Y-105875000D01*
X136550000Y-105940756D01*
X136550000Y-106059244D01*
X136567619Y-106125000D01*
X135500000Y-106125000D01*
X135500000Y-106774628D01*
X135514503Y-106847540D01*
X135514505Y-106847544D01*
X135569760Y-106930239D01*
X135652455Y-106985494D01*
X135652459Y-106985496D01*
X135725371Y-106999999D01*
X135725374Y-107000000D01*
X135876977Y-107000000D01*
X135944016Y-107019685D01*
X135989771Y-107072489D01*
X135999715Y-107141647D01*
X135970690Y-107205203D01*
X135945868Y-107227102D01*
X135894092Y-107261697D01*
X135894088Y-107261700D01*
X135761700Y-107394088D01*
X135761697Y-107394092D01*
X135657681Y-107549762D01*
X135657676Y-107549771D01*
X135586027Y-107722748D01*
X135586025Y-107722756D01*
X135549500Y-107906379D01*
X135549500Y-108093620D01*
X135586025Y-108277243D01*
X135586027Y-108277251D01*
X135657676Y-108450228D01*
X135657681Y-108450237D01*
X135761697Y-108605907D01*
X135761700Y-108605911D01*
X135894088Y-108738299D01*
X135894092Y-108738302D01*
X136049762Y-108842318D01*
X136049766Y-108842320D01*
X136049769Y-108842322D01*
X136132065Y-108876410D01*
X136153862Y-108885439D01*
X136208265Y-108929280D01*
X136230330Y-108995574D01*
X136213051Y-109063274D01*
X136161913Y-109110884D01*
X136153862Y-109114561D01*
X136049772Y-109157676D01*
X136049762Y-109157681D01*
X135894092Y-109261697D01*
X135894088Y-109261700D01*
X135761700Y-109394088D01*
X135761697Y-109394092D01*
X135657681Y-109549762D01*
X135657676Y-109549771D01*
X135586027Y-109722748D01*
X135586025Y-109722756D01*
X135549500Y-109906379D01*
X135549500Y-110093620D01*
X135586025Y-110277243D01*
X135586027Y-110277251D01*
X135657676Y-110450228D01*
X135657681Y-110450237D01*
X135761697Y-110605907D01*
X135761700Y-110605911D01*
X135862449Y-110706660D01*
X135895934Y-110767983D01*
X135890950Y-110837675D01*
X135849078Y-110893608D01*
X135831063Y-110904826D01*
X135668386Y-110987715D01*
X135502786Y-111108028D01*
X135358028Y-111252786D01*
X135237715Y-111418386D01*
X135144781Y-111600776D01*
X135081522Y-111795465D01*
X135049500Y-111997648D01*
X135049500Y-112202351D01*
X135081522Y-112404534D01*
X135144781Y-112599223D01*
X135237715Y-112781613D01*
X135358028Y-112947213D01*
X135502786Y-113091971D01*
X135657749Y-113204556D01*
X135668390Y-113212287D01*
X135767739Y-113262908D01*
X135850776Y-113305218D01*
X135850778Y-113305218D01*
X135850781Y-113305220D01*
X135955137Y-113339127D01*
X136045465Y-113368477D01*
X136146557Y-113384488D01*
X136247648Y-113400500D01*
X136247649Y-113400500D01*
X137752351Y-113400500D01*
X137752352Y-113400500D01*
X137954534Y-113368477D01*
X138149219Y-113305220D01*
X138331610Y-113212287D01*
X138424590Y-113144732D01*
X138497213Y-113091971D01*
X138497215Y-113091968D01*
X138497219Y-113091966D01*
X138641966Y-112947219D01*
X138641968Y-112947215D01*
X138641971Y-112947213D01*
X138695315Y-112873790D01*
X138762287Y-112781610D01*
X138855220Y-112599219D01*
X138918477Y-112404534D01*
X138950500Y-112202352D01*
X138950500Y-111997648D01*
X138918477Y-111795466D01*
X138855220Y-111600781D01*
X138855218Y-111600778D01*
X138855218Y-111600776D01*
X138821503Y-111534607D01*
X138762287Y-111418390D01*
X138754556Y-111407749D01*
X138641971Y-111252786D01*
X138497213Y-111108028D01*
X138331613Y-110987715D01*
X138331612Y-110987714D01*
X138331610Y-110987713D01*
X138235780Y-110938885D01*
X138168936Y-110904826D01*
X138118140Y-110856851D01*
X138101345Y-110789030D01*
X138123883Y-110722895D01*
X138137544Y-110706665D01*
X138238302Y-110605908D01*
X138342322Y-110450231D01*
X138413973Y-110277251D01*
X138450500Y-110093616D01*
X138450500Y-109906384D01*
X138413973Y-109722749D01*
X138342322Y-109549769D01*
X138342321Y-109549768D01*
X138342318Y-109549762D01*
X138238302Y-109394092D01*
X138238299Y-109394088D01*
X138105911Y-109261700D01*
X138105907Y-109261697D01*
X137950237Y-109157681D01*
X137950224Y-109157674D01*
X137846138Y-109114561D01*
X137791734Y-109070720D01*
X137769669Y-109004426D01*
X137786948Y-108936727D01*
X137838085Y-108889116D01*
X137846138Y-108885439D01*
X137950224Y-108842325D01*
X137950224Y-108842324D01*
X137950231Y-108842322D01*
X138105908Y-108738302D01*
X138238302Y-108605908D01*
X138342322Y-108450231D01*
X138413973Y-108277251D01*
X138450500Y-108093616D01*
X138450500Y-107906384D01*
X138413973Y-107722749D01*
X138342322Y-107549769D01*
X138342321Y-107549768D01*
X138342318Y-107549762D01*
X138238302Y-107394092D01*
X138238299Y-107394088D01*
X138105911Y-107261700D01*
X138105907Y-107261697D01*
X138054132Y-107227102D01*
X138009327Y-107173490D01*
X138000620Y-107104165D01*
X138030774Y-107041137D01*
X138090217Y-107004418D01*
X138123023Y-107000000D01*
X138274626Y-107000000D01*
X138274628Y-106999999D01*
X138347540Y-106985496D01*
X138347544Y-106985494D01*
X138430239Y-106930239D01*
X138485494Y-106847544D01*
X138485496Y-106847540D01*
X138499999Y-106774628D01*
X138500000Y-106774626D01*
X138500000Y-106125000D01*
X137432381Y-106125000D01*
X137450000Y-106059244D01*
X137450000Y-105940756D01*
X137432381Y-105875000D01*
X138500000Y-105875000D01*
X138500000Y-105225373D01*
X138499999Y-105225371D01*
X138485496Y-105152459D01*
X138485494Y-105152455D01*
X138438392Y-105081961D01*
X138417514Y-105015283D01*
X138435999Y-104947903D01*
X138468608Y-104912752D01*
X138497219Y-104891966D01*
X138641966Y-104747219D01*
X138641968Y-104747215D01*
X138641971Y-104747213D01*
X138762284Y-104581614D01*
X138762285Y-104581613D01*
X138762287Y-104581610D01*
X138786491Y-104534108D01*
X149899500Y-104534108D01*
X149899500Y-104665891D01*
X149933608Y-104793187D01*
X149966554Y-104850250D01*
X149999500Y-104907314D01*
X150092686Y-105000500D01*
X150206814Y-105066392D01*
X150334108Y-105100500D01*
X150334110Y-105100500D01*
X150465890Y-105100500D01*
X150465892Y-105100500D01*
X150593186Y-105066392D01*
X150707314Y-105000500D01*
X150770995Y-104936819D01*
X150832318Y-104903334D01*
X150858676Y-104900500D01*
X152241324Y-104900500D01*
X152308363Y-104920185D01*
X152329005Y-104936819D01*
X152392686Y-105000500D01*
X152506814Y-105066392D01*
X152634108Y-105100500D01*
X152634110Y-105100500D01*
X152765890Y-105100500D01*
X152765892Y-105100500D01*
X152893186Y-105066392D01*
X153007314Y-105000500D01*
X153100500Y-104907314D01*
X153166392Y-104793186D01*
X153200500Y-104665892D01*
X153200500Y-104534108D01*
X153166392Y-104406814D01*
X153100500Y-104292686D01*
X153007314Y-104199500D01*
X152950250Y-104166554D01*
X152893187Y-104133608D01*
X152829539Y-104116554D01*
X152765892Y-104099500D01*
X152634108Y-104099500D01*
X152506812Y-104133608D01*
X152392686Y-104199500D01*
X152392683Y-104199502D01*
X152329005Y-104263181D01*
X152267682Y-104296666D01*
X152241324Y-104299500D01*
X150858676Y-104299500D01*
X150791637Y-104279815D01*
X150770995Y-104263181D01*
X150707316Y-104199502D01*
X150707314Y-104199500D01*
X150650250Y-104166554D01*
X150593187Y-104133608D01*
X150529539Y-104116554D01*
X150465892Y-104099500D01*
X150334108Y-104099500D01*
X150206812Y-104133608D01*
X150092686Y-104199500D01*
X150092683Y-104199502D01*
X149999502Y-104292683D01*
X149999500Y-104292686D01*
X149933608Y-104406812D01*
X149899500Y-104534108D01*
X138786491Y-104534108D01*
X138855220Y-104399219D01*
X138918477Y-104204534D01*
X138950500Y-104002352D01*
X138950500Y-103797648D01*
X138918477Y-103595466D01*
X138855220Y-103400781D01*
X138855218Y-103400778D01*
X138855218Y-103400776D01*
X138805336Y-103302879D01*
X138762287Y-103218390D01*
X138736352Y-103182693D01*
X138641971Y-103052786D01*
X138497213Y-102908028D01*
X138331613Y-102787715D01*
X138331612Y-102787714D01*
X138331610Y-102787713D01*
X138235417Y-102738700D01*
X138149223Y-102694781D01*
X137954534Y-102631522D01*
X137779995Y-102603878D01*
X137752352Y-102599500D01*
X136247648Y-102599500D01*
X136223329Y-102603351D01*
X136045465Y-102631522D01*
X135850776Y-102694781D01*
X135668386Y-102787715D01*
X135502786Y-102908028D01*
X135358028Y-103052786D01*
X135237715Y-103218386D01*
X135144781Y-103400776D01*
X135081522Y-103595465D01*
X135049500Y-103797648D01*
X133500500Y-103797648D01*
X133500500Y-99401617D01*
X135750000Y-99401617D01*
X135750000Y-99598382D01*
X135780778Y-99792705D01*
X135841581Y-99979835D01*
X135930900Y-100155135D01*
X135930904Y-100155141D01*
X136030710Y-100292511D01*
X136030711Y-100292512D01*
X136532667Y-99790555D01*
X136559890Y-99837708D01*
X136662292Y-99940110D01*
X136709442Y-99967332D01*
X136207486Y-100469288D01*
X136344858Y-100569095D01*
X136344864Y-100569099D01*
X136520164Y-100658418D01*
X136707294Y-100719221D01*
X136901618Y-100750000D01*
X137098382Y-100750000D01*
X137292705Y-100719221D01*
X137479835Y-100658418D01*
X137655143Y-100569095D01*
X137792511Y-100469288D01*
X137792512Y-100469287D01*
X137290557Y-99967332D01*
X137337708Y-99940110D01*
X137440110Y-99837708D01*
X137467332Y-99790556D01*
X137969287Y-100292512D01*
X137969288Y-100292511D01*
X138069095Y-100155143D01*
X138158418Y-99979835D01*
X138219221Y-99792705D01*
X138250000Y-99598382D01*
X138250000Y-99401617D01*
X142250000Y-99401617D01*
X142250000Y-99598382D01*
X142280778Y-99792705D01*
X142341581Y-99979835D01*
X142430900Y-100155135D01*
X142430904Y-100155141D01*
X142530710Y-100292511D01*
X142530711Y-100292512D01*
X143032667Y-99790555D01*
X143059890Y-99837708D01*
X143162292Y-99940110D01*
X143209442Y-99967332D01*
X142707486Y-100469288D01*
X142844858Y-100569095D01*
X142844864Y-100569099D01*
X143020164Y-100658418D01*
X143207294Y-100719221D01*
X143401618Y-100750000D01*
X143598382Y-100750000D01*
X143792705Y-100719221D01*
X143979835Y-100658418D01*
X144155143Y-100569095D01*
X144292511Y-100469288D01*
X144292512Y-100469287D01*
X143790557Y-99967332D01*
X143837708Y-99940110D01*
X143940110Y-99837708D01*
X143967332Y-99790556D01*
X144469287Y-100292512D01*
X144469288Y-100292511D01*
X144569095Y-100155143D01*
X144589176Y-100115734D01*
X144589177Y-100115732D01*
X144658417Y-99979838D01*
X144719221Y-99792705D01*
X144750000Y-99598382D01*
X144750000Y-99401617D01*
X144719222Y-99207296D01*
X144712000Y-99185070D01*
X144711999Y-99185068D01*
X144701130Y-99151617D01*
X147500000Y-99151617D01*
X147500000Y-99348382D01*
X147530778Y-99542705D01*
X147591581Y-99729835D01*
X147680900Y-99905135D01*
X147680904Y-99905141D01*
X147780710Y-100042511D01*
X147780711Y-100042512D01*
X148282667Y-99540555D01*
X148309890Y-99587708D01*
X148412292Y-99690110D01*
X148459442Y-99717332D01*
X147957486Y-100219288D01*
X148094858Y-100319095D01*
X148094864Y-100319099D01*
X148270164Y-100408418D01*
X148457294Y-100469221D01*
X148651618Y-100500000D01*
X148848382Y-100500000D01*
X149042705Y-100469221D01*
X149229835Y-100408418D01*
X149405143Y-100319095D01*
X149542511Y-100219288D01*
X149542512Y-100219287D01*
X149040557Y-99717332D01*
X149087708Y-99690110D01*
X149190110Y-99587708D01*
X149217332Y-99540556D01*
X149719287Y-100042512D01*
X149719288Y-100042511D01*
X149819095Y-99905143D01*
X149908418Y-99729835D01*
X149969221Y-99542705D01*
X150000000Y-99348382D01*
X150000000Y-99151617D01*
X154000000Y-99151617D01*
X154000000Y-99348382D01*
X154030778Y-99542705D01*
X154091581Y-99729835D01*
X154180900Y-99905135D01*
X154180904Y-99905141D01*
X154280710Y-100042511D01*
X154280711Y-100042512D01*
X154782667Y-99540555D01*
X154809890Y-99587708D01*
X154912292Y-99690110D01*
X154959442Y-99717332D01*
X154457486Y-100219288D01*
X154594858Y-100319095D01*
X154594864Y-100319099D01*
X154770164Y-100408418D01*
X154957294Y-100469221D01*
X155151618Y-100500000D01*
X155348382Y-100500000D01*
X155542705Y-100469221D01*
X155729835Y-100408418D01*
X155905143Y-100319095D01*
X156042511Y-100219288D01*
X156042512Y-100219287D01*
X155540557Y-99717332D01*
X155587708Y-99690110D01*
X155690110Y-99587708D01*
X155717332Y-99540556D01*
X156219287Y-100042512D01*
X156219288Y-100042511D01*
X156319095Y-99905143D01*
X156408418Y-99729835D01*
X156469221Y-99542705D01*
X156500000Y-99348382D01*
X156500000Y-99151617D01*
X156469221Y-98957294D01*
X156408418Y-98770164D01*
X156319099Y-98594864D01*
X156319095Y-98594858D01*
X156219288Y-98457487D01*
X156219288Y-98457486D01*
X155717332Y-98959442D01*
X155690110Y-98912292D01*
X155587708Y-98809890D01*
X155540556Y-98782667D01*
X156042512Y-98280711D01*
X156042511Y-98280710D01*
X155905141Y-98180904D01*
X155905131Y-98180897D01*
X155878426Y-98167291D01*
X155878425Y-98167291D01*
X155729835Y-98091581D01*
X155542705Y-98030778D01*
X155348382Y-98000000D01*
X155151618Y-98000000D01*
X154957294Y-98030778D01*
X154770164Y-98091581D01*
X154594856Y-98180904D01*
X154457487Y-98280710D01*
X154457486Y-98280710D01*
X154959443Y-98782667D01*
X154912292Y-98809890D01*
X154809890Y-98912292D01*
X154782667Y-98959443D01*
X154280710Y-98457486D01*
X154280710Y-98457487D01*
X154180904Y-98594856D01*
X154091581Y-98770164D01*
X154030778Y-98957294D01*
X154000000Y-99151617D01*
X150000000Y-99151617D01*
X149969221Y-98957294D01*
X149908418Y-98770164D01*
X149819099Y-98594864D01*
X149819095Y-98594858D01*
X149719288Y-98457487D01*
X149719288Y-98457486D01*
X149217332Y-98959442D01*
X149190110Y-98912292D01*
X149087708Y-98809890D01*
X149040556Y-98782667D01*
X149542512Y-98280711D01*
X149542511Y-98280710D01*
X149405141Y-98180904D01*
X149405135Y-98180900D01*
X149229835Y-98091581D01*
X149042705Y-98030778D01*
X148848382Y-98000000D01*
X148651618Y-98000000D01*
X148457294Y-98030778D01*
X148270164Y-98091581D01*
X148094856Y-98180904D01*
X147957487Y-98280710D01*
X147957486Y-98280710D01*
X148459443Y-98782667D01*
X148412292Y-98809890D01*
X148309890Y-98912292D01*
X148282667Y-98959443D01*
X147780710Y-98457486D01*
X147780710Y-98457487D01*
X147680904Y-98594856D01*
X147591581Y-98770164D01*
X147530778Y-98957294D01*
X147500000Y-99151617D01*
X144701130Y-99151617D01*
X144658418Y-99020164D01*
X144569099Y-98844864D01*
X144569095Y-98844858D01*
X144469288Y-98707487D01*
X144469288Y-98707486D01*
X143967332Y-99209442D01*
X143940110Y-99162292D01*
X143837708Y-99059890D01*
X143790556Y-99032667D01*
X144292512Y-98530711D01*
X144292511Y-98530710D01*
X144155141Y-98430904D01*
X144155135Y-98430900D01*
X143979835Y-98341581D01*
X143792705Y-98280778D01*
X143598382Y-98250000D01*
X143401618Y-98250000D01*
X143207294Y-98280778D01*
X143020164Y-98341581D01*
X142844856Y-98430904D01*
X142707487Y-98530710D01*
X142707486Y-98530710D01*
X143209443Y-99032667D01*
X143162292Y-99059890D01*
X143059890Y-99162292D01*
X143032667Y-99209443D01*
X142530710Y-98707486D01*
X142530710Y-98707487D01*
X142430904Y-98844856D01*
X142341581Y-99020164D01*
X142280778Y-99207294D01*
X142250000Y-99401617D01*
X138250000Y-99401617D01*
X138219221Y-99207294D01*
X138158418Y-99020164D01*
X138069099Y-98844864D01*
X138069095Y-98844858D01*
X137969288Y-98707487D01*
X137969288Y-98707486D01*
X137467332Y-99209442D01*
X137440110Y-99162292D01*
X137337708Y-99059890D01*
X137290556Y-99032667D01*
X137792512Y-98530711D01*
X137792511Y-98530710D01*
X137655141Y-98430904D01*
X137655135Y-98430900D01*
X137479835Y-98341581D01*
X137292705Y-98280778D01*
X137098382Y-98250000D01*
X136901618Y-98250000D01*
X136707294Y-98280778D01*
X136520164Y-98341581D01*
X136344856Y-98430904D01*
X136207487Y-98530710D01*
X136207486Y-98530710D01*
X136709443Y-99032667D01*
X136662292Y-99059890D01*
X136559890Y-99162292D01*
X136532667Y-99209443D01*
X136030710Y-98707486D01*
X136030710Y-98707487D01*
X135930904Y-98844856D01*
X135841581Y-99020164D01*
X135780778Y-99207294D01*
X135750000Y-99401617D01*
X133500500Y-99401617D01*
X133500500Y-94905513D01*
X135799500Y-94905513D01*
X135799500Y-95094486D01*
X135829059Y-95281118D01*
X135887454Y-95460836D01*
X135955469Y-95594321D01*
X135973240Y-95629199D01*
X136084310Y-95782073D01*
X136217927Y-95915690D01*
X136370801Y-96026760D01*
X136433972Y-96058947D01*
X136539163Y-96112545D01*
X136539165Y-96112545D01*
X136539168Y-96112547D01*
X136635497Y-96143846D01*
X136718881Y-96170940D01*
X136905514Y-96200500D01*
X136905519Y-96200500D01*
X137094486Y-96200500D01*
X137281118Y-96170940D01*
X137460832Y-96112547D01*
X137629199Y-96026760D01*
X137782073Y-95915690D01*
X137915690Y-95782073D01*
X138026760Y-95629199D01*
X138112547Y-95460832D01*
X138129660Y-95408165D01*
X138136803Y-95386182D01*
X138176241Y-95328506D01*
X138240599Y-95301308D01*
X138254734Y-95300500D01*
X142245266Y-95300500D01*
X142312305Y-95320185D01*
X142358060Y-95372989D01*
X142363197Y-95386182D01*
X142387451Y-95460829D01*
X142387453Y-95460832D01*
X142473240Y-95629199D01*
X142584310Y-95782073D01*
X142717927Y-95915690D01*
X142870801Y-96026760D01*
X142933972Y-96058947D01*
X143039163Y-96112545D01*
X143039165Y-96112545D01*
X143039168Y-96112547D01*
X143135497Y-96143846D01*
X143218881Y-96170940D01*
X143405514Y-96200500D01*
X143405519Y-96200500D01*
X143594486Y-96200500D01*
X143781118Y-96170940D01*
X143960832Y-96112547D01*
X144129199Y-96026760D01*
X144282073Y-95915690D01*
X144415690Y-95782073D01*
X144526760Y-95629199D01*
X144612547Y-95460832D01*
X144670940Y-95281118D01*
X144700500Y-95094486D01*
X144700500Y-94905513D01*
X144683303Y-94796940D01*
X144670940Y-94718882D01*
X144670939Y-94718878D01*
X144670939Y-94718877D01*
X144661220Y-94688965D01*
X144650350Y-94655513D01*
X147549500Y-94655513D01*
X147549500Y-94844486D01*
X147579059Y-95031118D01*
X147637454Y-95210836D01*
X147718553Y-95370000D01*
X147723240Y-95379199D01*
X147834310Y-95532073D01*
X147967927Y-95665690D01*
X148120801Y-95776760D01*
X148200347Y-95817290D01*
X148289163Y-95862545D01*
X148289165Y-95862545D01*
X148289168Y-95862547D01*
X148385497Y-95893846D01*
X148468881Y-95920940D01*
X148655514Y-95950500D01*
X148655519Y-95950500D01*
X148844486Y-95950500D01*
X149031118Y-95920940D01*
X149056450Y-95912709D01*
X149210832Y-95862547D01*
X149379199Y-95776760D01*
X149532073Y-95665690D01*
X149665690Y-95532073D01*
X149776760Y-95379199D01*
X149862547Y-95210832D01*
X149862548Y-95210829D01*
X149886803Y-95136182D01*
X149926241Y-95078506D01*
X149990599Y-95051308D01*
X150004734Y-95050500D01*
X153995266Y-95050500D01*
X154062305Y-95070185D01*
X154108060Y-95122989D01*
X154113197Y-95136182D01*
X154137451Y-95210829D01*
X154193171Y-95320185D01*
X154223240Y-95379199D01*
X154334310Y-95532073D01*
X154467927Y-95665690D01*
X154620801Y-95776760D01*
X154700347Y-95817290D01*
X154789163Y-95862545D01*
X154789165Y-95862545D01*
X154789168Y-95862547D01*
X154885497Y-95893846D01*
X154968881Y-95920940D01*
X155155514Y-95950500D01*
X155155519Y-95950500D01*
X155344486Y-95950500D01*
X155531118Y-95920940D01*
X155556450Y-95912709D01*
X155710832Y-95862547D01*
X155879199Y-95776760D01*
X156032073Y-95665690D01*
X156165690Y-95532073D01*
X156276760Y-95379199D01*
X156362547Y-95210832D01*
X156420940Y-95031118D01*
X156440834Y-94905513D01*
X156450500Y-94844486D01*
X156450500Y-94655513D01*
X156420940Y-94468881D01*
X156386802Y-94363818D01*
X156362547Y-94289168D01*
X156362545Y-94289165D01*
X156362545Y-94289163D01*
X156276759Y-94120800D01*
X156165690Y-93967927D01*
X156032073Y-93834310D01*
X155879199Y-93723240D01*
X155710836Y-93637454D01*
X155531118Y-93579059D01*
X155344486Y-93549500D01*
X155344481Y-93549500D01*
X155155519Y-93549500D01*
X155155514Y-93549500D01*
X154968881Y-93579059D01*
X154789163Y-93637454D01*
X154620800Y-93723240D01*
X154533579Y-93786610D01*
X154467927Y-93834310D01*
X154467925Y-93834312D01*
X154467924Y-93834312D01*
X154334312Y-93967924D01*
X154334312Y-93967925D01*
X154334310Y-93967927D01*
X154330450Y-93973240D01*
X154223240Y-94120800D01*
X154137451Y-94289170D01*
X154113197Y-94363818D01*
X154073759Y-94421494D01*
X154009401Y-94448692D01*
X153995266Y-94449500D01*
X150004734Y-94449500D01*
X149937695Y-94429815D01*
X149891940Y-94377011D01*
X149886803Y-94363818D01*
X149862548Y-94289170D01*
X149776759Y-94120800D01*
X149665690Y-93967927D01*
X149532073Y-93834310D01*
X149379199Y-93723240D01*
X149210836Y-93637454D01*
X149031118Y-93579059D01*
X148844486Y-93549500D01*
X148844481Y-93549500D01*
X148655519Y-93549500D01*
X148655514Y-93549500D01*
X148468881Y-93579059D01*
X148289163Y-93637454D01*
X148120800Y-93723240D01*
X148033579Y-93786610D01*
X147967927Y-93834310D01*
X147967925Y-93834312D01*
X147967924Y-93834312D01*
X147834312Y-93967924D01*
X147834312Y-93967925D01*
X147834310Y-93967927D01*
X147830450Y-93973240D01*
X147723240Y-94120800D01*
X147637454Y-94289163D01*
X147579059Y-94468881D01*
X147549500Y-94655513D01*
X144650350Y-94655513D01*
X144629758Y-94592139D01*
X144612547Y-94539168D01*
X144612545Y-94539165D01*
X144612545Y-94539163D01*
X144526759Y-94370800D01*
X144415690Y-94217927D01*
X144282073Y-94084310D01*
X144129199Y-93973240D01*
X144118766Y-93967924D01*
X143960836Y-93887454D01*
X143781118Y-93829059D01*
X143594486Y-93799500D01*
X143594481Y-93799500D01*
X143405519Y-93799500D01*
X143405514Y-93799500D01*
X143218881Y-93829059D01*
X143039163Y-93887454D01*
X142870800Y-93973240D01*
X142783579Y-94036610D01*
X142717927Y-94084310D01*
X142717925Y-94084312D01*
X142717924Y-94084312D01*
X142584312Y-94217924D01*
X142584312Y-94217925D01*
X142584310Y-94217927D01*
X142536610Y-94283579D01*
X142473240Y-94370800D01*
X142387451Y-94539170D01*
X142363197Y-94613818D01*
X142323759Y-94671494D01*
X142259401Y-94698692D01*
X142245266Y-94699500D01*
X138254734Y-94699500D01*
X138187695Y-94679815D01*
X138141940Y-94627011D01*
X138136803Y-94613818D01*
X138112548Y-94539170D01*
X138112544Y-94539163D01*
X138026760Y-94370801D01*
X137915690Y-94217927D01*
X137782073Y-94084310D01*
X137629199Y-93973240D01*
X137618766Y-93967924D01*
X137460836Y-93887454D01*
X137281118Y-93829059D01*
X137094486Y-93799500D01*
X137094481Y-93799500D01*
X136905519Y-93799500D01*
X136905514Y-93799500D01*
X136718881Y-93829059D01*
X136539163Y-93887454D01*
X136370800Y-93973240D01*
X136283579Y-94036610D01*
X136217927Y-94084310D01*
X136217925Y-94084312D01*
X136217924Y-94084312D01*
X136084312Y-94217924D01*
X136084312Y-94217925D01*
X136084310Y-94217927D01*
X136036610Y-94283579D01*
X135973240Y-94370800D01*
X135887454Y-94539163D01*
X135829059Y-94718881D01*
X135799500Y-94905513D01*
X133500500Y-94905513D01*
X133500500Y-90151617D01*
X135750000Y-90151617D01*
X135750000Y-90348382D01*
X135780778Y-90542705D01*
X135841581Y-90729835D01*
X135930900Y-90905135D01*
X135930904Y-90905141D01*
X136030710Y-91042511D01*
X136030711Y-91042512D01*
X136532667Y-90540555D01*
X136559890Y-90587708D01*
X136662292Y-90690110D01*
X136709442Y-90717332D01*
X136207486Y-91219288D01*
X136344858Y-91319095D01*
X136344864Y-91319099D01*
X136520164Y-91408418D01*
X136707294Y-91469221D01*
X136901618Y-91500000D01*
X137098382Y-91500000D01*
X137292705Y-91469221D01*
X137479835Y-91408418D01*
X137655143Y-91319095D01*
X137792511Y-91219288D01*
X137792512Y-91219287D01*
X137290557Y-90717332D01*
X137337708Y-90690110D01*
X137440110Y-90587708D01*
X137467332Y-90540556D01*
X137969287Y-91042512D01*
X137969288Y-91042511D01*
X138069095Y-90905143D01*
X138158418Y-90729835D01*
X138219221Y-90542705D01*
X138250000Y-90348382D01*
X138250000Y-90151617D01*
X142250000Y-90151617D01*
X142250000Y-90348382D01*
X142280778Y-90542705D01*
X142341581Y-90729835D01*
X142430900Y-90905135D01*
X142430904Y-90905141D01*
X142530710Y-91042511D01*
X142530711Y-91042512D01*
X143032667Y-90540555D01*
X143059890Y-90587708D01*
X143162292Y-90690110D01*
X143209442Y-90717332D01*
X142707486Y-91219288D01*
X142844858Y-91319095D01*
X142844864Y-91319099D01*
X143020164Y-91408418D01*
X143207294Y-91469221D01*
X143401618Y-91500000D01*
X143598382Y-91500000D01*
X143792705Y-91469221D01*
X143979835Y-91408418D01*
X144155143Y-91319095D01*
X144292511Y-91219288D01*
X144292512Y-91219287D01*
X143790557Y-90717332D01*
X143837708Y-90690110D01*
X143940110Y-90587708D01*
X143967332Y-90540556D01*
X144469287Y-91042512D01*
X144469288Y-91042511D01*
X144569095Y-90905143D01*
X144658418Y-90729835D01*
X144719221Y-90542705D01*
X144750000Y-90348382D01*
X144750000Y-90151617D01*
X147500000Y-90151617D01*
X147500000Y-90348382D01*
X147530778Y-90542705D01*
X147591581Y-90729835D01*
X147680900Y-90905135D01*
X147680904Y-90905141D01*
X147780710Y-91042511D01*
X147780711Y-91042512D01*
X148282667Y-90540555D01*
X148309890Y-90587708D01*
X148412292Y-90690110D01*
X148459442Y-90717332D01*
X147957486Y-91219288D01*
X148094858Y-91319095D01*
X148094864Y-91319099D01*
X148270164Y-91408418D01*
X148457294Y-91469221D01*
X148651618Y-91500000D01*
X148848382Y-91500000D01*
X149042705Y-91469221D01*
X149229835Y-91408418D01*
X149405143Y-91319095D01*
X149542511Y-91219288D01*
X149542512Y-91219287D01*
X149040557Y-90717332D01*
X149087708Y-90690110D01*
X149190110Y-90587708D01*
X149217332Y-90540556D01*
X149719287Y-91042512D01*
X149719288Y-91042511D01*
X149819095Y-90905143D01*
X149908418Y-90729835D01*
X149969221Y-90542705D01*
X150000000Y-90348382D01*
X150000000Y-90151617D01*
X154000000Y-90151617D01*
X154000000Y-90348382D01*
X154030778Y-90542705D01*
X154091581Y-90729835D01*
X154180900Y-90905135D01*
X154180904Y-90905141D01*
X154280710Y-91042511D01*
X154280711Y-91042512D01*
X154782667Y-90540555D01*
X154809890Y-90587708D01*
X154912292Y-90690110D01*
X154959442Y-90717332D01*
X154457486Y-91219288D01*
X154594858Y-91319095D01*
X154594864Y-91319099D01*
X154770164Y-91408418D01*
X154957294Y-91469221D01*
X155151618Y-91500000D01*
X155348382Y-91500000D01*
X155542705Y-91469221D01*
X155729835Y-91408418D01*
X155905143Y-91319095D01*
X156042511Y-91219288D01*
X156042512Y-91219287D01*
X155540557Y-90717332D01*
X155587708Y-90690110D01*
X155690110Y-90587708D01*
X155717332Y-90540556D01*
X156219287Y-91042512D01*
X156219288Y-91042511D01*
X156319095Y-90905143D01*
X156408418Y-90729835D01*
X156469221Y-90542705D01*
X156500000Y-90348382D01*
X156500000Y-90151617D01*
X156469221Y-89957294D01*
X156408418Y-89770164D01*
X156319099Y-89594864D01*
X156319095Y-89594858D01*
X156219288Y-89457487D01*
X156219288Y-89457486D01*
X155717332Y-89959442D01*
X155690110Y-89912292D01*
X155587708Y-89809890D01*
X155540556Y-89782667D01*
X156042512Y-89280711D01*
X156042511Y-89280710D01*
X155905141Y-89180904D01*
X155905135Y-89180900D01*
X155729835Y-89091581D01*
X155542705Y-89030778D01*
X155348382Y-89000000D01*
X155151618Y-89000000D01*
X154957294Y-89030778D01*
X154770164Y-89091581D01*
X154594856Y-89180904D01*
X154457487Y-89280710D01*
X154457486Y-89280710D01*
X154959443Y-89782667D01*
X154912292Y-89809890D01*
X154809890Y-89912292D01*
X154782667Y-89959443D01*
X154280710Y-89457486D01*
X154280710Y-89457487D01*
X154180904Y-89594856D01*
X154091581Y-89770164D01*
X154030778Y-89957294D01*
X154000000Y-90151617D01*
X150000000Y-90151617D01*
X149969221Y-89957294D01*
X149908418Y-89770164D01*
X149819099Y-89594864D01*
X149819095Y-89594858D01*
X149719288Y-89457487D01*
X149719288Y-89457486D01*
X149217332Y-89959442D01*
X149190110Y-89912292D01*
X149087708Y-89809890D01*
X149040556Y-89782667D01*
X149542512Y-89280711D01*
X149542511Y-89280710D01*
X149405141Y-89180904D01*
X149405135Y-89180900D01*
X149229835Y-89091581D01*
X149042705Y-89030778D01*
X148848382Y-89000000D01*
X148651618Y-89000000D01*
X148457294Y-89030778D01*
X148270164Y-89091581D01*
X148094856Y-89180904D01*
X147957487Y-89280710D01*
X147957486Y-89280710D01*
X148459443Y-89782667D01*
X148412292Y-89809890D01*
X148309890Y-89912292D01*
X148282667Y-89959443D01*
X147780710Y-89457486D01*
X147780710Y-89457487D01*
X147680904Y-89594856D01*
X147591581Y-89770164D01*
X147530778Y-89957294D01*
X147500000Y-90151617D01*
X144750000Y-90151617D01*
X144719221Y-89957294D01*
X144658418Y-89770164D01*
X144569099Y-89594864D01*
X144569095Y-89594858D01*
X144469288Y-89457487D01*
X144469288Y-89457486D01*
X143967332Y-89959442D01*
X143940110Y-89912292D01*
X143837708Y-89809890D01*
X143790556Y-89782667D01*
X144292512Y-89280711D01*
X144292511Y-89280710D01*
X144155141Y-89180904D01*
X144155135Y-89180900D01*
X143979835Y-89091581D01*
X143792705Y-89030778D01*
X143598382Y-89000000D01*
X143401618Y-89000000D01*
X143207294Y-89030778D01*
X143020164Y-89091581D01*
X142844856Y-89180904D01*
X142707487Y-89280710D01*
X142707486Y-89280710D01*
X143209443Y-89782667D01*
X143162292Y-89809890D01*
X143059890Y-89912292D01*
X143032667Y-89959443D01*
X142530710Y-89457486D01*
X142530710Y-89457487D01*
X142430904Y-89594856D01*
X142341581Y-89770164D01*
X142280778Y-89957294D01*
X142250000Y-90151617D01*
X138250000Y-90151617D01*
X138219221Y-89957294D01*
X138158418Y-89770164D01*
X138069099Y-89594864D01*
X138069095Y-89594858D01*
X137969288Y-89457487D01*
X137969288Y-89457486D01*
X137467332Y-89959442D01*
X137440110Y-89912292D01*
X137337708Y-89809890D01*
X137290556Y-89782667D01*
X137792512Y-89280711D01*
X137792511Y-89280710D01*
X137655141Y-89180904D01*
X137655135Y-89180900D01*
X137479835Y-89091581D01*
X137292705Y-89030778D01*
X137098382Y-89000000D01*
X136901618Y-89000000D01*
X136707294Y-89030778D01*
X136520164Y-89091581D01*
X136344856Y-89180904D01*
X136207487Y-89280710D01*
X136207486Y-89280710D01*
X136709443Y-89782667D01*
X136662292Y-89809890D01*
X136559890Y-89912292D01*
X136532667Y-89959443D01*
X136030710Y-89457486D01*
X136030710Y-89457487D01*
X135930904Y-89594856D01*
X135841581Y-89770164D01*
X135780778Y-89957294D01*
X135750000Y-90151617D01*
X133500500Y-90151617D01*
X133500500Y-85655513D01*
X135799500Y-85655513D01*
X135799500Y-85844486D01*
X135829059Y-86031118D01*
X135887454Y-86210836D01*
X135973240Y-86379199D01*
X136084310Y-86532073D01*
X136217927Y-86665690D01*
X136370801Y-86776760D01*
X136450347Y-86817290D01*
X136539163Y-86862545D01*
X136539165Y-86862545D01*
X136539168Y-86862547D01*
X136635497Y-86893846D01*
X136718881Y-86920940D01*
X136905514Y-86950500D01*
X136905519Y-86950500D01*
X137094486Y-86950500D01*
X137281118Y-86920940D01*
X137460832Y-86862547D01*
X137629199Y-86776760D01*
X137782073Y-86665690D01*
X137915690Y-86532073D01*
X138026760Y-86379199D01*
X138112547Y-86210832D01*
X138112548Y-86210829D01*
X138136803Y-86136182D01*
X138176241Y-86078506D01*
X138240599Y-86051308D01*
X138254734Y-86050500D01*
X142245266Y-86050500D01*
X142312305Y-86070185D01*
X142358060Y-86122989D01*
X142363197Y-86136182D01*
X142387451Y-86210829D01*
X142387453Y-86210832D01*
X142473240Y-86379199D01*
X142584310Y-86532073D01*
X142717927Y-86665690D01*
X142870801Y-86776760D01*
X142950347Y-86817290D01*
X143039163Y-86862545D01*
X143039165Y-86862545D01*
X143039168Y-86862547D01*
X143135497Y-86893846D01*
X143218881Y-86920940D01*
X143405514Y-86950500D01*
X143405519Y-86950500D01*
X143594486Y-86950500D01*
X143781118Y-86920940D01*
X143960832Y-86862547D01*
X144129199Y-86776760D01*
X144282073Y-86665690D01*
X144415690Y-86532073D01*
X144526760Y-86379199D01*
X144612547Y-86210832D01*
X144670940Y-86031118D01*
X144700500Y-85844486D01*
X144700500Y-85655513D01*
X147549500Y-85655513D01*
X147549500Y-85844486D01*
X147579059Y-86031118D01*
X147637454Y-86210836D01*
X147723240Y-86379199D01*
X147834310Y-86532073D01*
X147967927Y-86665690D01*
X148120801Y-86776760D01*
X148200347Y-86817290D01*
X148289163Y-86862545D01*
X148289165Y-86862545D01*
X148289168Y-86862547D01*
X148385497Y-86893846D01*
X148468881Y-86920940D01*
X148655514Y-86950500D01*
X148655519Y-86950500D01*
X148844486Y-86950500D01*
X149031118Y-86920940D01*
X149210832Y-86862547D01*
X149379199Y-86776760D01*
X149532073Y-86665690D01*
X149665690Y-86532073D01*
X149776760Y-86379199D01*
X149862547Y-86210832D01*
X149862548Y-86210829D01*
X149886803Y-86136182D01*
X149926241Y-86078506D01*
X149990599Y-86051308D01*
X150004734Y-86050500D01*
X153995266Y-86050500D01*
X154062305Y-86070185D01*
X154108060Y-86122989D01*
X154113197Y-86136182D01*
X154137451Y-86210829D01*
X154137453Y-86210832D01*
X154223240Y-86379199D01*
X154334310Y-86532073D01*
X154467927Y-86665690D01*
X154620801Y-86776760D01*
X154700347Y-86817290D01*
X154789163Y-86862545D01*
X154789165Y-86862545D01*
X154789168Y-86862547D01*
X154885497Y-86893846D01*
X154968881Y-86920940D01*
X155155514Y-86950500D01*
X155155519Y-86950500D01*
X155344486Y-86950500D01*
X155531118Y-86920940D01*
X155710832Y-86862547D01*
X155879199Y-86776760D01*
X156032073Y-86665690D01*
X156165690Y-86532073D01*
X156276760Y-86379199D01*
X156362547Y-86210832D01*
X156420940Y-86031118D01*
X156450500Y-85844486D01*
X156450500Y-85655513D01*
X156420940Y-85468881D01*
X156386802Y-85363818D01*
X156362547Y-85289168D01*
X156362545Y-85289165D01*
X156362545Y-85289163D01*
X156276759Y-85120800D01*
X156165690Y-84967927D01*
X156032073Y-84834310D01*
X155879199Y-84723240D01*
X155710836Y-84637454D01*
X155531118Y-84579059D01*
X155344486Y-84549500D01*
X155344481Y-84549500D01*
X155155519Y-84549500D01*
X155155514Y-84549500D01*
X154968881Y-84579059D01*
X154789163Y-84637454D01*
X154620800Y-84723240D01*
X154533579Y-84786610D01*
X154467927Y-84834310D01*
X154467925Y-84834312D01*
X154467924Y-84834312D01*
X154334312Y-84967924D01*
X154334312Y-84967925D01*
X154334310Y-84967927D01*
X154286610Y-85033579D01*
X154223240Y-85120800D01*
X154137451Y-85289170D01*
X154113197Y-85363818D01*
X154073759Y-85421494D01*
X154009401Y-85448692D01*
X153995266Y-85449500D01*
X150004734Y-85449500D01*
X149937695Y-85429815D01*
X149891940Y-85377011D01*
X149886803Y-85363818D01*
X149862548Y-85289170D01*
X149776759Y-85120800D01*
X149665690Y-84967927D01*
X149532073Y-84834310D01*
X149379199Y-84723240D01*
X149210836Y-84637454D01*
X149031118Y-84579059D01*
X148844486Y-84549500D01*
X148844481Y-84549500D01*
X148655519Y-84549500D01*
X148655514Y-84549500D01*
X148468881Y-84579059D01*
X148289163Y-84637454D01*
X148120800Y-84723240D01*
X148033579Y-84786610D01*
X147967927Y-84834310D01*
X147967925Y-84834312D01*
X147967924Y-84834312D01*
X147834312Y-84967924D01*
X147834312Y-84967925D01*
X147834310Y-84967927D01*
X147786610Y-85033579D01*
X147723240Y-85120800D01*
X147637454Y-85289163D01*
X147579059Y-85468881D01*
X147549500Y-85655513D01*
X144700500Y-85655513D01*
X144670940Y-85468881D01*
X144636802Y-85363818D01*
X144612547Y-85289168D01*
X144612545Y-85289165D01*
X144612545Y-85289163D01*
X144526759Y-85120800D01*
X144415690Y-84967927D01*
X144282073Y-84834310D01*
X144129199Y-84723240D01*
X143960836Y-84637454D01*
X143781118Y-84579059D01*
X143594486Y-84549500D01*
X143594481Y-84549500D01*
X143405519Y-84549500D01*
X143405514Y-84549500D01*
X143218881Y-84579059D01*
X143039163Y-84637454D01*
X142870800Y-84723240D01*
X142783579Y-84786610D01*
X142717927Y-84834310D01*
X142717925Y-84834312D01*
X142717924Y-84834312D01*
X142584312Y-84967924D01*
X142584312Y-84967925D01*
X142584310Y-84967927D01*
X142536610Y-85033579D01*
X142473240Y-85120800D01*
X142387451Y-85289170D01*
X142363197Y-85363818D01*
X142323759Y-85421494D01*
X142259401Y-85448692D01*
X142245266Y-85449500D01*
X138254734Y-85449500D01*
X138187695Y-85429815D01*
X138141940Y-85377011D01*
X138136803Y-85363818D01*
X138112548Y-85289170D01*
X138026759Y-85120800D01*
X137915690Y-84967927D01*
X137782073Y-84834310D01*
X137629199Y-84723240D01*
X137460836Y-84637454D01*
X137281118Y-84579059D01*
X137094486Y-84549500D01*
X137094481Y-84549500D01*
X136905519Y-84549500D01*
X136905514Y-84549500D01*
X136718881Y-84579059D01*
X136539163Y-84637454D01*
X136370800Y-84723240D01*
X136283579Y-84786610D01*
X136217927Y-84834310D01*
X136217925Y-84834312D01*
X136217924Y-84834312D01*
X136084312Y-84967924D01*
X136084312Y-84967925D01*
X136084310Y-84967927D01*
X136036610Y-85033579D01*
X135973240Y-85120800D01*
X135887454Y-85289163D01*
X135829059Y-85468881D01*
X135799500Y-85655513D01*
X133500500Y-85655513D01*
X133500500Y-81151617D01*
X147500000Y-81151617D01*
X147500000Y-81348382D01*
X147530778Y-81542705D01*
X147591581Y-81729835D01*
X147680900Y-81905135D01*
X147680904Y-81905141D01*
X147780710Y-82042511D01*
X147780711Y-82042512D01*
X148282667Y-81540555D01*
X148309890Y-81587708D01*
X148412292Y-81690110D01*
X148459442Y-81717332D01*
X147957486Y-82219288D01*
X148094858Y-82319095D01*
X148094864Y-82319099D01*
X148270164Y-82408418D01*
X148457294Y-82469221D01*
X148651618Y-82500000D01*
X148848382Y-82500000D01*
X149042705Y-82469221D01*
X149229835Y-82408418D01*
X149405143Y-82319095D01*
X149542511Y-82219288D01*
X149542512Y-82219287D01*
X149040557Y-81717332D01*
X149087708Y-81690110D01*
X149190110Y-81587708D01*
X149217332Y-81540556D01*
X149719287Y-82042512D01*
X149719288Y-82042511D01*
X149819095Y-81905143D01*
X149908418Y-81729835D01*
X149969221Y-81542705D01*
X150000000Y-81348382D01*
X150000000Y-81151617D01*
X154000000Y-81151617D01*
X154000000Y-81348382D01*
X154030778Y-81542705D01*
X154091581Y-81729835D01*
X154180900Y-81905135D01*
X154180904Y-81905141D01*
X154280710Y-82042511D01*
X154280711Y-82042512D01*
X154782667Y-81540555D01*
X154809890Y-81587708D01*
X154912292Y-81690110D01*
X154959442Y-81717332D01*
X154457486Y-82219288D01*
X154594858Y-82319095D01*
X154594864Y-82319099D01*
X154770164Y-82408418D01*
X154957294Y-82469221D01*
X155151618Y-82500000D01*
X155348382Y-82500000D01*
X155542705Y-82469221D01*
X155729835Y-82408418D01*
X155905143Y-82319095D01*
X156042511Y-82219288D01*
X156042512Y-82219287D01*
X155540557Y-81717332D01*
X155587708Y-81690110D01*
X155690110Y-81587708D01*
X155717332Y-81540556D01*
X156219287Y-82042512D01*
X156219288Y-82042511D01*
X156319095Y-81905143D01*
X156408418Y-81729835D01*
X156469221Y-81542705D01*
X156500000Y-81348382D01*
X156500000Y-81151617D01*
X156469221Y-80957294D01*
X156408418Y-80770164D01*
X156319099Y-80594864D01*
X156319095Y-80594858D01*
X156219288Y-80457487D01*
X156219288Y-80457486D01*
X155717332Y-80959442D01*
X155690110Y-80912292D01*
X155587708Y-80809890D01*
X155540556Y-80782667D01*
X156042512Y-80280711D01*
X156042511Y-80280710D01*
X155905141Y-80180904D01*
X155905135Y-80180900D01*
X155729835Y-80091581D01*
X155542705Y-80030778D01*
X155348382Y-80000000D01*
X155151618Y-80000000D01*
X154957294Y-80030778D01*
X154770164Y-80091581D01*
X154594856Y-80180904D01*
X154457487Y-80280710D01*
X154457486Y-80280710D01*
X154959443Y-80782667D01*
X154912292Y-80809890D01*
X154809890Y-80912292D01*
X154782667Y-80959443D01*
X154280710Y-80457486D01*
X154280710Y-80457487D01*
X154180904Y-80594856D01*
X154091581Y-80770164D01*
X154030778Y-80957294D01*
X154000000Y-81151617D01*
X150000000Y-81151617D01*
X149969221Y-80957294D01*
X149908418Y-80770164D01*
X149819099Y-80594864D01*
X149819095Y-80594858D01*
X149719288Y-80457487D01*
X149719288Y-80457486D01*
X149217332Y-80959442D01*
X149190110Y-80912292D01*
X149087708Y-80809890D01*
X149040556Y-80782667D01*
X149542512Y-80280711D01*
X149542511Y-80280710D01*
X149405141Y-80180904D01*
X149405135Y-80180900D01*
X149229835Y-80091581D01*
X149042705Y-80030778D01*
X148848382Y-80000000D01*
X148651618Y-80000000D01*
X148457294Y-80030778D01*
X148270164Y-80091581D01*
X148094856Y-80180904D01*
X147957487Y-80280710D01*
X147957486Y-80280710D01*
X148459443Y-80782667D01*
X148412292Y-80809890D01*
X148309890Y-80912292D01*
X148282667Y-80959443D01*
X147780710Y-80457486D01*
X147780710Y-80457487D01*
X147680904Y-80594856D01*
X147591581Y-80770164D01*
X147530778Y-80957294D01*
X147500000Y-81151617D01*
X133500500Y-81151617D01*
X133500500Y-78421902D01*
X135999500Y-78421902D01*
X135999500Y-78658097D01*
X136036446Y-78891368D01*
X136109433Y-79115996D01*
X136216657Y-79326433D01*
X136355483Y-79517510D01*
X136522490Y-79684517D01*
X136713567Y-79823343D01*
X136812991Y-79874002D01*
X136924003Y-79930566D01*
X136924005Y-79930566D01*
X136924008Y-79930568D01*
X137044412Y-79969689D01*
X137148631Y-80003553D01*
X137381903Y-80040500D01*
X137381908Y-80040500D01*
X137618097Y-80040500D01*
X137851368Y-80003553D01*
X137862303Y-80000000D01*
X138075992Y-79930568D01*
X138286433Y-79823343D01*
X138477510Y-79684517D01*
X138644517Y-79517510D01*
X138783343Y-79326433D01*
X138890568Y-79115992D01*
X138963553Y-78891368D01*
X139000500Y-78658097D01*
X139000500Y-78421902D01*
X138963553Y-78188631D01*
X138890566Y-77964003D01*
X138783342Y-77753566D01*
X138719496Y-77665690D01*
X138644517Y-77562490D01*
X138477510Y-77395483D01*
X138286433Y-77256657D01*
X138075996Y-77149433D01*
X137851368Y-77076446D01*
X137618097Y-77039500D01*
X137618092Y-77039500D01*
X137381908Y-77039500D01*
X137381903Y-77039500D01*
X137148631Y-77076446D01*
X136924003Y-77149433D01*
X136713566Y-77256657D01*
X136604550Y-77335862D01*
X136522490Y-77395483D01*
X136522488Y-77395485D01*
X136522487Y-77395485D01*
X136355485Y-77562487D01*
X136355485Y-77562488D01*
X136355483Y-77562490D01*
X136295862Y-77644550D01*
X136216657Y-77753566D01*
X136109433Y-77964003D01*
X136036446Y-78188631D01*
X135999500Y-78421902D01*
X133500500Y-78421902D01*
X133500500Y-76655513D01*
X147549500Y-76655513D01*
X147549500Y-76844486D01*
X147579059Y-77031118D01*
X147637454Y-77210836D01*
X147723240Y-77379199D01*
X147834310Y-77532073D01*
X147967927Y-77665690D01*
X148120801Y-77776760D01*
X148200347Y-77817290D01*
X148289163Y-77862545D01*
X148289165Y-77862545D01*
X148289168Y-77862547D01*
X148385497Y-77893846D01*
X148468881Y-77920940D01*
X148655514Y-77950500D01*
X148655519Y-77950500D01*
X148844486Y-77950500D01*
X149031118Y-77920940D01*
X149210832Y-77862547D01*
X149379199Y-77776760D01*
X149532073Y-77665690D01*
X149665690Y-77532073D01*
X149776760Y-77379199D01*
X149862547Y-77210832D01*
X149882497Y-77149433D01*
X149886803Y-77136182D01*
X149926241Y-77078506D01*
X149990599Y-77051308D01*
X150004734Y-77050500D01*
X153995266Y-77050500D01*
X154062305Y-77070185D01*
X154108060Y-77122989D01*
X154113197Y-77136182D01*
X154137451Y-77210829D01*
X154137453Y-77210832D01*
X154223240Y-77379199D01*
X154334310Y-77532073D01*
X154467927Y-77665690D01*
X154620801Y-77776760D01*
X154700347Y-77817290D01*
X154789163Y-77862545D01*
X154789165Y-77862545D01*
X154789168Y-77862547D01*
X154885497Y-77893846D01*
X154968881Y-77920940D01*
X155155514Y-77950500D01*
X155155519Y-77950500D01*
X155344486Y-77950500D01*
X155531118Y-77920940D01*
X155710832Y-77862547D01*
X155879199Y-77776760D01*
X156032073Y-77665690D01*
X156165690Y-77532073D01*
X156276760Y-77379199D01*
X156362547Y-77210832D01*
X156420940Y-77031118D01*
X156450500Y-76844486D01*
X156450500Y-76655513D01*
X156420940Y-76468881D01*
X156386802Y-76363818D01*
X156362547Y-76289168D01*
X156362545Y-76289165D01*
X156362545Y-76289163D01*
X156276759Y-76120800D01*
X156165690Y-75967927D01*
X156032073Y-75834310D01*
X155879199Y-75723240D01*
X155710836Y-75637454D01*
X155531118Y-75579059D01*
X155344486Y-75549500D01*
X155344481Y-75549500D01*
X155155519Y-75549500D01*
X155155514Y-75549500D01*
X154968881Y-75579059D01*
X154789163Y-75637454D01*
X154620800Y-75723240D01*
X154533579Y-75786610D01*
X154467927Y-75834310D01*
X154467925Y-75834312D01*
X154467924Y-75834312D01*
X154334312Y-75967924D01*
X154334312Y-75967925D01*
X154334310Y-75967927D01*
X154286610Y-76033579D01*
X154223240Y-76120800D01*
X154137451Y-76289170D01*
X154113197Y-76363818D01*
X154073759Y-76421494D01*
X154009401Y-76448692D01*
X153995266Y-76449500D01*
X150004734Y-76449500D01*
X149937695Y-76429815D01*
X149891940Y-76377011D01*
X149886803Y-76363818D01*
X149862548Y-76289170D01*
X149776759Y-76120800D01*
X149665690Y-75967927D01*
X149532073Y-75834310D01*
X149379199Y-75723240D01*
X149210836Y-75637454D01*
X149031118Y-75579059D01*
X148844486Y-75549500D01*
X148844481Y-75549500D01*
X148655519Y-75549500D01*
X148655514Y-75549500D01*
X148468881Y-75579059D01*
X148289163Y-75637454D01*
X148120800Y-75723240D01*
X148033579Y-75786610D01*
X147967927Y-75834310D01*
X147967925Y-75834312D01*
X147967924Y-75834312D01*
X147834312Y-75967924D01*
X147834312Y-75967925D01*
X147834310Y-75967927D01*
X147786610Y-76033579D01*
X147723240Y-76120800D01*
X147637454Y-76289163D01*
X147579059Y-76468881D01*
X147549500Y-76655513D01*
X133500500Y-76655513D01*
X133500500Y-72736048D01*
X135999500Y-72736048D01*
X135999500Y-74183951D01*
X136002317Y-74225499D01*
X136046963Y-74405021D01*
X136046964Y-74405023D01*
X136129156Y-74570750D01*
X136245059Y-74714940D01*
X136327173Y-74780945D01*
X136389247Y-74830842D01*
X136554979Y-74913037D01*
X136734501Y-74957682D01*
X136734502Y-74957682D01*
X136734505Y-74957683D01*
X136776046Y-74960500D01*
X136776048Y-74960500D01*
X138223952Y-74960500D01*
X138223954Y-74960500D01*
X138265495Y-74957683D01*
X138445021Y-74913037D01*
X138610753Y-74830842D01*
X138754940Y-74714940D01*
X138870842Y-74570753D01*
X138953037Y-74405021D01*
X138997683Y-74225495D01*
X139000500Y-74183954D01*
X139000500Y-72736046D01*
X138997683Y-72694505D01*
X138953037Y-72514979D01*
X138870842Y-72349247D01*
X138820945Y-72287173D01*
X138754940Y-72205059D01*
X138652785Y-72122945D01*
X138610753Y-72089158D01*
X138610751Y-72089157D01*
X138610750Y-72089156D01*
X138445023Y-72006964D01*
X138445021Y-72006963D01*
X138265497Y-71962317D01*
X138265501Y-71962317D01*
X138234339Y-71960204D01*
X138223954Y-71959500D01*
X136776046Y-71959500D01*
X136764177Y-71960304D01*
X136734500Y-71962317D01*
X136554978Y-72006963D01*
X136554976Y-72006964D01*
X136389249Y-72089156D01*
X136245059Y-72205059D01*
X136129156Y-72349249D01*
X136046964Y-72514976D01*
X136046963Y-72514978D01*
X136002317Y-72694500D01*
X135999500Y-72736048D01*
X133500500Y-72736048D01*
X133500500Y-65170247D01*
X136949500Y-65170247D01*
X136949500Y-66909752D01*
X136961131Y-66968229D01*
X136961132Y-66968230D01*
X137005447Y-67034552D01*
X137071769Y-67078867D01*
X137071770Y-67078868D01*
X137130247Y-67090499D01*
X137130250Y-67090500D01*
X137130252Y-67090500D01*
X138869750Y-67090500D01*
X138869751Y-67090499D01*
X138884568Y-67087552D01*
X138928229Y-67078868D01*
X138928229Y-67078867D01*
X138928231Y-67078867D01*
X138994552Y-67034552D01*
X139038867Y-66968231D01*
X139038867Y-66968229D01*
X139038868Y-66968229D01*
X139050499Y-66909752D01*
X139050500Y-66909750D01*
X139050500Y-65170249D01*
X139050499Y-65170247D01*
X139038868Y-65111770D01*
X139038867Y-65111769D01*
X138994552Y-65045447D01*
X138928230Y-65001132D01*
X138928229Y-65001131D01*
X138869752Y-64989500D01*
X138869748Y-64989500D01*
X137130252Y-64989500D01*
X137130247Y-64989500D01*
X137071770Y-65001131D01*
X137071769Y-65001132D01*
X137005447Y-65045447D01*
X136961132Y-65111769D01*
X136961131Y-65111770D01*
X136949500Y-65170247D01*
X133500500Y-65170247D01*
X133500500Y-63396530D01*
X136949500Y-63396530D01*
X136949500Y-63603469D01*
X136989868Y-63806412D01*
X136989870Y-63806420D01*
X137069058Y-63997596D01*
X137184024Y-64169657D01*
X137330342Y-64315975D01*
X137330345Y-64315977D01*
X137502402Y-64430941D01*
X137693580Y-64510130D01*
X137896530Y-64550499D01*
X137896534Y-64550500D01*
X137896535Y-64550500D01*
X138103466Y-64550500D01*
X138103467Y-64550499D01*
X138306420Y-64510130D01*
X138497598Y-64430941D01*
X138669655Y-64315977D01*
X138815977Y-64169655D01*
X138930941Y-63997598D01*
X139010130Y-63806420D01*
X139050500Y-63603465D01*
X139050500Y-63396535D01*
X139010130Y-63193580D01*
X138930941Y-63002402D01*
X138815977Y-62830345D01*
X138815975Y-62830342D01*
X138669657Y-62684024D01*
X138583626Y-62626541D01*
X138497598Y-62569059D01*
X138306420Y-62489870D01*
X138306412Y-62489868D01*
X138103469Y-62449500D01*
X138103465Y-62449500D01*
X137896535Y-62449500D01*
X137896530Y-62449500D01*
X137693587Y-62489868D01*
X137693579Y-62489870D01*
X137502403Y-62569058D01*
X137330342Y-62684024D01*
X137184024Y-62830342D01*
X137069058Y-63002403D01*
X136989870Y-63193579D01*
X136989868Y-63193587D01*
X136949500Y-63396530D01*
X133500500Y-63396530D01*
X133500500Y-60873428D01*
X136900000Y-60873428D01*
X136900000Y-61046571D01*
X136927085Y-61217584D01*
X136980591Y-61382257D01*
X137059194Y-61536521D01*
X137138097Y-61645124D01*
X137569269Y-61213952D01*
X137599901Y-61267007D01*
X137692993Y-61360099D01*
X137746046Y-61390729D01*
X137314874Y-61821901D01*
X137423478Y-61900805D01*
X137577742Y-61979408D01*
X137742415Y-62032914D01*
X137913429Y-62060000D01*
X138086571Y-62060000D01*
X138257584Y-62032914D01*
X138422257Y-61979408D01*
X138576528Y-61900801D01*
X138685124Y-61821902D01*
X138685125Y-61821901D01*
X138253953Y-61390729D01*
X138307007Y-61360099D01*
X138400099Y-61267007D01*
X138430729Y-61213953D01*
X138861901Y-61645125D01*
X138861902Y-61645124D01*
X138940801Y-61536528D01*
X139019408Y-61382257D01*
X139072914Y-61217584D01*
X139100000Y-61046571D01*
X139100000Y-60873428D01*
X139072914Y-60702415D01*
X139019408Y-60537742D01*
X138940805Y-60383478D01*
X138861901Y-60274874D01*
X138430729Y-60706046D01*
X138400099Y-60652993D01*
X138307007Y-60559901D01*
X138253952Y-60529270D01*
X138685124Y-60098097D01*
X138576521Y-60019194D01*
X138422257Y-59940591D01*
X138257584Y-59887085D01*
X138086571Y-59860000D01*
X137913429Y-59860000D01*
X137742415Y-59887085D01*
X137577742Y-59940591D01*
X137423476Y-60019195D01*
X137423474Y-60019196D01*
X137314874Y-60098096D01*
X137314874Y-60098097D01*
X137746047Y-60529270D01*
X137692993Y-60559901D01*
X137599901Y-60652993D01*
X137569270Y-60706047D01*
X137138097Y-60274874D01*
X137138096Y-60274874D01*
X137059196Y-60383474D01*
X137059195Y-60383476D01*
X136980591Y-60537742D01*
X136927085Y-60702415D01*
X136900000Y-60873428D01*
X133500500Y-60873428D01*
X133500500Y-60504427D01*
X133500816Y-60495581D01*
X133515130Y-60295443D01*
X133515131Y-60295442D01*
X133515130Y-60295436D01*
X133517646Y-60277938D01*
X133559357Y-60086196D01*
X133564335Y-60069242D01*
X133632911Y-59885382D01*
X133640251Y-59869310D01*
X133734294Y-59697083D01*
X133743850Y-59682214D01*
X133861443Y-59525128D01*
X133873017Y-59511771D01*
X134011771Y-59373017D01*
X134025128Y-59361443D01*
X134182214Y-59243850D01*
X134197083Y-59234294D01*
X134369310Y-59140251D01*
X134385382Y-59132911D01*
X134569242Y-59064335D01*
X134586200Y-59059356D01*
X134777938Y-59017646D01*
X134795436Y-59015130D01*
X134995582Y-59000816D01*
X135004428Y-59000500D01*
X135065892Y-59000500D01*
X160934108Y-59000500D01*
X160995572Y-59000500D01*
X161004418Y-59000816D01*
G37*
%TD.AperFunction*%
%TD*%
M02*
