M48
; DRILL file KiCad 10.0.6 date 2026-10-05T13:28:24
; FORMAT={-:-/ absolute / metric / decimal}
; #@! TF.CreationDate,2026-10-05T13:28:24+03:00
; #@! TF.GenerationSoftware,Kicad,Pcbnew,10.0.6
; #@! TF.FileFunction,Plated,1,2,PTH
FMAT,2
METRIC
; #@! TA.AperFunction,Plated,PTH,ViaDrill
T1C0.300
; #@! TA.AperFunction,Plated,PTH,ComponentDrill
T2C0.900
; #@! TA.AperFunction,Plated,PTH,ComponentDrill
T3C1.000
; #@! TA.AperFunction,Plated,PTH,ComponentDrill
T4C1.100
; #@! TA.AperFunction,Plated,PTH,ComponentDrill
T5C1.300
; #@! TA.AperFunction,Plated,PTH,ComponentDrill
T6C1.500
%
G90
G05
T1
X133.8Y-63.939
X133.8Y-67.326
X133.8Y-70.714
X133.8Y-74.101
X133.8Y-77.488
X133.8Y-80.876
X133.8Y-84.263
X133.8Y-87.651
X133.8Y-91.038
X133.8Y-94.425
X133.8Y-97.813
X133.8Y-101.2
X133.934Y-110.456
X135.8Y-61.0
X136.9Y-92.1
X136.9Y-101.4
X137.002Y-69.727
X138.415Y-82.05
X139.0Y-106.0
X140.1Y-60.4
X140.5Y-76.7
X140.736Y-66.179
X141.056Y-112.99
X141.723Y-103.388
X141.8Y-75.6
X141.829Y-62.419
X141.856Y-82.396
X141.9Y-106.2
X142.309Y-79.356
X142.5Y-109.5
X142.5Y-111.0
X142.9Y-73.3
X143.7Y-92.1
X143.83Y-76.422
X144.897Y-80.983
X145.3Y-62.9
X145.3Y-68.1
X145.3Y-99.6
X145.3Y-103.3
X146.2Y-65.5
X146.817Y-105.575
X147.0Y-99.2
X147.793Y-67.762
X148.096Y-65.681
X148.311Y-103.601
X148.7Y-83.1
X148.8Y-92.2
X149.394Y-63.654
X149.856Y-68.58
X149.991Y-106.962
X150.4Y-104.6
X150.631Y-74.208
X152.0Y-109.5
X152.0Y-111.0
X152.292Y-65.859
X152.5Y-63.9
X152.7Y-104.6
X153.5Y-106.0
X153.5Y-111.0
X153.581Y-109.523
X154.1Y-68.3
X154.152Y-113.203
X154.285Y-103.681
X154.7Y-107.5
X155.3Y-83.1
X155.3Y-92.1
X155.4Y-63.7
X155.7Y-65.7
X155.859Y-73.194
X157.0Y-99.3
X157.0Y-103.3
X157.0Y-109.8
X158.9Y-97.0
X159.2Y-109.8
X160.0Y-61.478
X160.0Y-64.889
X160.0Y-68.3
X160.0Y-71.711
X160.0Y-75.123
X160.0Y-78.534
X160.0Y-81.945
X160.0Y-85.356
X160.0Y-88.767
X160.0Y-92.178
X161.1Y-94.8
X161.2Y-109.8
X161.5Y-108.9
T2
X137.0Y-106.0
X137.0Y-108.0
X137.0Y-110.0
T3
X138.0Y-60.96
X138.0Y-63.5
X138.0Y-66.04
T4
X137.0Y-85.75
X137.0Y-90.25
X137.0Y-95.0
X137.0Y-99.5
X143.5Y-85.75
X143.5Y-90.25
X143.5Y-95.0
X143.5Y-99.5
X148.75Y-76.75
X148.75Y-81.25
X148.75Y-85.75
X148.75Y-90.25
X148.75Y-94.75
X148.75Y-99.25
X155.25Y-76.75
X155.25Y-81.25
X155.25Y-85.75
X155.25Y-90.25
X155.25Y-94.75
X155.25Y-99.25
T5
X137.5Y-73.46
X137.5Y-78.54
X161.0Y-96.92
X161.0Y-102.0
T6
X137.0Y-103.9
X137.0Y-112.1
M30
